G04 #@! TF.GenerationSoftware,KiCad,Pcbnew,5.1.6-c6e7f7d~87~ubuntu20.04.1*
G04 #@! TF.CreationDate,2020-09-01T15:12:56+02:00*
G04 #@! TF.ProjectId,UVDAR_Board,55564441-525f-4426-9f61-72642e6b6963,rev?*
G04 #@! TF.SameCoordinates,Original*
G04 #@! TF.FileFunction,Copper,L2,Bot*
G04 #@! TF.FilePolarity,Positive*
%FSLAX46Y46*%
G04 Gerber Fmt 4.6, Leading zero omitted, Abs format (unit mm)*
G04 Created by KiCad (PCBNEW 5.1.6-c6e7f7d~87~ubuntu20.04.1) date 2020-09-01 15:12:56*
%MOMM*%
%LPD*%
G01*
G04 APERTURE LIST*
G04 #@! TA.AperFunction,ComponentPad*
%ADD10R,1.700000X1.700000*%
G04 #@! TD*
G04 #@! TA.AperFunction,ComponentPad*
%ADD11O,1.700000X1.700000*%
G04 #@! TD*
G04 #@! TA.AperFunction,ComponentPad*
%ADD12C,3.000000*%
G04 #@! TD*
G04 #@! TA.AperFunction,ComponentPad*
%ADD13R,3.000000X3.000000*%
G04 #@! TD*
G04 #@! TA.AperFunction,ViaPad*
%ADD14C,0.800000*%
G04 #@! TD*
G04 #@! TA.AperFunction,Conductor*
%ADD15C,0.400000*%
G04 #@! TD*
G04 #@! TA.AperFunction,Conductor*
%ADD16C,0.250000*%
G04 #@! TD*
G04 #@! TA.AperFunction,Conductor*
%ADD17C,0.300000*%
G04 #@! TD*
G04 #@! TA.AperFunction,Conductor*
%ADD18C,0.254000*%
G04 #@! TD*
G04 APERTURE END LIST*
D10*
X157000000Y-110750000D03*
D11*
X154460000Y-110750000D03*
X151920000Y-110750000D03*
X149380000Y-110750000D03*
X146840000Y-110750000D03*
D12*
X95000000Y-109500000D03*
D13*
X95000000Y-104500000D03*
D14*
X146000000Y-122500000D03*
X147000000Y-134000000D03*
X139000000Y-134000000D03*
X136000000Y-134000000D03*
X106000000Y-135000000D03*
X104000000Y-135000000D03*
X104000000Y-127000000D03*
X105000000Y-125000000D03*
X104000000Y-115000000D03*
X107000000Y-115000000D03*
X106500000Y-105000000D03*
X106500000Y-107000000D03*
X106500000Y-109000000D03*
X108000000Y-107000000D03*
X108000000Y-105000000D03*
X107250000Y-106000000D03*
X129000000Y-124800000D03*
X123000000Y-116000000D03*
X120000000Y-113900000D03*
X107226341Y-107980849D03*
X129000000Y-108000000D03*
X126000000Y-108000000D03*
X126000000Y-111000000D03*
X129000000Y-111000000D03*
X129000000Y-114000000D03*
X129000000Y-117000000D03*
X129000000Y-120000000D03*
X126000000Y-117000000D03*
X126000000Y-114000000D03*
X129000000Y-105000000D03*
X152000000Y-105000000D03*
X156000000Y-105000000D03*
X111000000Y-131500000D03*
X113000000Y-131500000D03*
X111000000Y-128000000D03*
X126500000Y-128000000D03*
X129500000Y-128000000D03*
X126500000Y-132000000D03*
X126500000Y-135000000D03*
X108500000Y-126000000D03*
X108500000Y-123000000D03*
X108500000Y-119500000D03*
X108500000Y-116000000D03*
X137500000Y-132500000D03*
X143000000Y-117000000D03*
X134500000Y-120500000D03*
X134000000Y-104500000D03*
X137500000Y-104500000D03*
X139000000Y-120500000D03*
X137000000Y-120500000D03*
X123750000Y-128000000D03*
X123750000Y-131750000D03*
X103750000Y-123500000D03*
X143230000Y-131200000D03*
X150000000Y-105750000D03*
X147500000Y-106750000D03*
X143750000Y-104250000D03*
X147500000Y-104250000D03*
X145000000Y-110000000D03*
X144750000Y-106750000D03*
X142000000Y-106250000D03*
X139000000Y-108500000D03*
X134000000Y-113500000D03*
X113750000Y-135250000D03*
X113750000Y-134250000D03*
X122500000Y-122750000D03*
X123000000Y-118000000D03*
X144750000Y-123750000D03*
X147250000Y-121250000D03*
X144750000Y-121250000D03*
X147250000Y-123750000D03*
X111000000Y-124250000D03*
X97500000Y-108500000D03*
X97500000Y-109500000D03*
X97500000Y-110500000D03*
X97500000Y-111500000D03*
X98250000Y-111000000D03*
X98250000Y-110000000D03*
X98250000Y-109000000D03*
X92750000Y-108500000D03*
X92750000Y-109500000D03*
X92750000Y-110500000D03*
X92750000Y-111500000D03*
X96500000Y-112000000D03*
X95500000Y-112000000D03*
X98250000Y-112000000D03*
X94500000Y-112000000D03*
X93500000Y-112000000D03*
X143000000Y-114000000D03*
X131221795Y-126240000D03*
X138960000Y-123140000D03*
X135900000Y-123600000D03*
X106605001Y-126890000D03*
X138600043Y-128910495D03*
X107160000Y-128430000D03*
X139800000Y-128900004D03*
X108250000Y-131500008D03*
X140874990Y-128899992D03*
X129816184Y-131806184D03*
X142200000Y-127600000D03*
X119050000Y-131500008D03*
X141000000Y-127600000D03*
X138725010Y-118374990D03*
X139500000Y-119100000D03*
X136700000Y-118099974D03*
X140625000Y-112500000D03*
D15*
X140500000Y-121600000D02*
X138960000Y-123140000D01*
X143500000Y-113500000D02*
X143000000Y-114000000D01*
X154250000Y-113500000D02*
X143500000Y-113500000D01*
X157000000Y-110500000D02*
X157000000Y-110750000D01*
X157000000Y-110750000D02*
X154250000Y-113500000D01*
X135860000Y-126240000D02*
X131221795Y-126240000D01*
X138960000Y-123140000D02*
X135860000Y-126240000D01*
X140500000Y-116500000D02*
X140500000Y-121600000D01*
X143000000Y-114000000D02*
X140500000Y-116500000D01*
D16*
X146840000Y-110500000D02*
X146840000Y-110750000D01*
X138000000Y-121500000D02*
X135900000Y-123600000D01*
X142200000Y-112000000D02*
X138000000Y-116200000D01*
X146840000Y-110750000D02*
X145590000Y-112000000D01*
X138000000Y-116200000D02*
X138000000Y-121500000D01*
X145590000Y-112000000D02*
X142200000Y-112000000D01*
X109970000Y-129500000D02*
X138010538Y-129500000D01*
X138010538Y-129500000D02*
X138600043Y-128910495D01*
X106605001Y-126890000D02*
X107360000Y-126890000D01*
X107360000Y-126890000D02*
X109970000Y-129500000D01*
X107160000Y-128430000D02*
X107160000Y-128430000D01*
X109550011Y-129950011D02*
X138749993Y-129950011D01*
X139400001Y-129300003D02*
X139800000Y-128900004D01*
X138749993Y-129950011D02*
X139400001Y-129300003D01*
X107160000Y-128430000D02*
X108030000Y-128430000D01*
X108030000Y-128430000D02*
X109550011Y-129950011D01*
X108250000Y-131500008D02*
X109310008Y-130440000D01*
X109310008Y-130440000D02*
X139334982Y-130440000D01*
X140474991Y-129299991D02*
X140874990Y-128899992D01*
X139334982Y-130440000D02*
X140474991Y-129299991D01*
X142200000Y-129700000D02*
X142200000Y-127600000D01*
X140559978Y-131340022D02*
X142200000Y-129700000D01*
X129816184Y-131806184D02*
X130282346Y-131340022D01*
X130282346Y-131340022D02*
X140559978Y-131340022D01*
X140009989Y-130890011D02*
X141600000Y-129300000D01*
X141399999Y-127999999D02*
X141000000Y-127600000D01*
X119050000Y-131500008D02*
X119659997Y-130890011D01*
X141600000Y-128200000D02*
X141399999Y-127999999D01*
X141600000Y-129300000D02*
X141600000Y-128200000D01*
X119659997Y-130890011D02*
X140009989Y-130890011D01*
X142636410Y-112500000D02*
X138725010Y-116411400D01*
X149380000Y-110500000D02*
X149380000Y-110750000D01*
X147630000Y-112500000D02*
X142636410Y-112500000D01*
X149380000Y-110750000D02*
X147630000Y-112500000D01*
X138725010Y-116400000D02*
X138725010Y-118374990D01*
X142797831Y-112974989D02*
X139500000Y-116272820D01*
X152235011Y-112974989D02*
X142797831Y-112974989D01*
X154460000Y-110500000D02*
X154460000Y-110750000D01*
X154460000Y-110750000D02*
X152235011Y-112974989D01*
X139500000Y-116300000D02*
X139500000Y-119100000D01*
X137299974Y-115825026D02*
X140625000Y-112500000D01*
X136700000Y-118099974D02*
X137299974Y-117500000D01*
X137299974Y-117500000D02*
X137299974Y-115825026D01*
D17*
G36*
X158550001Y-146550000D02*
G01*
X92450000Y-146550000D01*
X92450000Y-141803017D01*
X95000000Y-141803017D01*
X95000000Y-142196983D01*
X95076859Y-142583378D01*
X95227623Y-142947355D01*
X95446499Y-143274926D01*
X95725074Y-143553501D01*
X96052645Y-143772377D01*
X96416622Y-143923141D01*
X96803017Y-144000000D01*
X97196983Y-144000000D01*
X97583378Y-143923141D01*
X97947355Y-143772377D01*
X98274926Y-143553501D01*
X98553501Y-143274926D01*
X98772377Y-142947355D01*
X98923141Y-142583378D01*
X99000000Y-142196983D01*
X99000000Y-141803017D01*
X152000000Y-141803017D01*
X152000000Y-142196983D01*
X152076859Y-142583378D01*
X152227623Y-142947355D01*
X152446499Y-143274926D01*
X152725074Y-143553501D01*
X153052645Y-143772377D01*
X153416622Y-143923141D01*
X153803017Y-144000000D01*
X154196983Y-144000000D01*
X154583378Y-143923141D01*
X154947355Y-143772377D01*
X155274926Y-143553501D01*
X155553501Y-143274926D01*
X155772377Y-142947355D01*
X155923141Y-142583378D01*
X156000000Y-142196983D01*
X156000000Y-141803017D01*
X155923141Y-141416622D01*
X155772377Y-141052645D01*
X155553501Y-140725074D01*
X155274926Y-140446499D01*
X154947355Y-140227623D01*
X154583378Y-140076859D01*
X154196983Y-140000000D01*
X153803017Y-140000000D01*
X153416622Y-140076859D01*
X153052645Y-140227623D01*
X152725074Y-140446499D01*
X152446499Y-140725074D01*
X152227623Y-141052645D01*
X152076859Y-141416622D01*
X152000000Y-141803017D01*
X99000000Y-141803017D01*
X98923141Y-141416622D01*
X98772377Y-141052645D01*
X98553501Y-140725074D01*
X98274926Y-140446499D01*
X97947355Y-140227623D01*
X97583378Y-140076859D01*
X97196983Y-140000000D01*
X96803017Y-140000000D01*
X96416622Y-140076859D01*
X96052645Y-140227623D01*
X95725074Y-140446499D01*
X95446499Y-140725074D01*
X95227623Y-141052645D01*
X95076859Y-141416622D01*
X95000000Y-141803017D01*
X92450000Y-141803017D01*
X92450000Y-126811207D01*
X105805001Y-126811207D01*
X105805001Y-126968793D01*
X105835744Y-127123351D01*
X105896050Y-127268942D01*
X105983600Y-127399970D01*
X106095031Y-127511401D01*
X106226059Y-127598951D01*
X106371650Y-127659257D01*
X106526208Y-127690000D01*
X106683794Y-127690000D01*
X106838352Y-127659257D01*
X106983943Y-127598951D01*
X107114971Y-127511401D01*
X107176955Y-127449417D01*
X107387023Y-127659484D01*
X107238793Y-127630000D01*
X107081207Y-127630000D01*
X106926649Y-127660743D01*
X106781058Y-127721049D01*
X106650030Y-127808599D01*
X106538599Y-127920030D01*
X106451049Y-128051058D01*
X106390743Y-128196649D01*
X106360000Y-128351207D01*
X106360000Y-128508793D01*
X106390743Y-128663351D01*
X106451049Y-128808942D01*
X106538599Y-128939970D01*
X106650030Y-129051401D01*
X106781058Y-129138951D01*
X106926649Y-129199257D01*
X107081207Y-129230000D01*
X107238793Y-129230000D01*
X107393351Y-129199257D01*
X107538942Y-129138951D01*
X107669970Y-129051401D01*
X107766371Y-128955000D01*
X107812539Y-128955000D01*
X108931360Y-130073822D01*
X108920542Y-130087004D01*
X108307539Y-130700008D01*
X108171207Y-130700008D01*
X108016649Y-130730751D01*
X107871058Y-130791057D01*
X107740030Y-130878607D01*
X107628599Y-130990038D01*
X107541049Y-131121066D01*
X107480743Y-131266657D01*
X107450000Y-131421215D01*
X107450000Y-131578801D01*
X107480743Y-131733359D01*
X107541049Y-131878950D01*
X107628599Y-132009978D01*
X107740030Y-132121409D01*
X107871058Y-132208959D01*
X108016649Y-132269265D01*
X108171207Y-132300008D01*
X108328793Y-132300008D01*
X108483351Y-132269265D01*
X108628942Y-132208959D01*
X108759970Y-132121409D01*
X108871401Y-132009978D01*
X108958951Y-131878950D01*
X109019257Y-131733359D01*
X109050000Y-131578801D01*
X109050000Y-131442469D01*
X109527470Y-130965000D01*
X118453637Y-130965000D01*
X118428599Y-130990038D01*
X118341049Y-131121066D01*
X118280743Y-131266657D01*
X118250000Y-131421215D01*
X118250000Y-131578801D01*
X118280743Y-131733359D01*
X118341049Y-131878950D01*
X118428599Y-132009978D01*
X118540030Y-132121409D01*
X118671058Y-132208959D01*
X118816649Y-132269265D01*
X118971207Y-132300008D01*
X119128793Y-132300008D01*
X119283351Y-132269265D01*
X119428942Y-132208959D01*
X119559970Y-132121409D01*
X119671401Y-132009978D01*
X119758951Y-131878950D01*
X119819257Y-131733359D01*
X119850000Y-131578801D01*
X119850000Y-131442470D01*
X119877459Y-131415011D01*
X129115405Y-131415011D01*
X129107233Y-131427242D01*
X129046927Y-131572833D01*
X129016184Y-131727391D01*
X129016184Y-131884977D01*
X129046927Y-132039535D01*
X129107233Y-132185126D01*
X129194783Y-132316154D01*
X129306214Y-132427585D01*
X129437242Y-132515135D01*
X129582833Y-132575441D01*
X129737391Y-132606184D01*
X129894977Y-132606184D01*
X130049535Y-132575441D01*
X130195126Y-132515135D01*
X130326154Y-132427585D01*
X130437585Y-132316154D01*
X130525135Y-132185126D01*
X130585441Y-132039535D01*
X130616184Y-131884977D01*
X130616184Y-131865022D01*
X140534198Y-131865022D01*
X140559978Y-131867561D01*
X140585758Y-131865022D01*
X140585766Y-131865022D01*
X140662896Y-131857425D01*
X140761859Y-131827405D01*
X140853064Y-131778655D01*
X140933005Y-131713049D01*
X140949449Y-131693012D01*
X142552996Y-130089466D01*
X142573027Y-130073027D01*
X142638633Y-129993086D01*
X142687383Y-129901881D01*
X142717403Y-129802918D01*
X142725000Y-129725788D01*
X142725000Y-129725781D01*
X142727539Y-129700001D01*
X142725000Y-129674221D01*
X142725000Y-128206371D01*
X142821401Y-128109970D01*
X142908951Y-127978942D01*
X142969257Y-127833351D01*
X143000000Y-127678793D01*
X143000000Y-127521207D01*
X142969257Y-127366649D01*
X142908951Y-127221058D01*
X142821401Y-127090030D01*
X142709970Y-126978599D01*
X142578942Y-126891049D01*
X142433351Y-126830743D01*
X142278793Y-126800000D01*
X142121207Y-126800000D01*
X141966649Y-126830743D01*
X141821058Y-126891049D01*
X141690030Y-126978599D01*
X141600000Y-127068629D01*
X141509970Y-126978599D01*
X141378942Y-126891049D01*
X141233351Y-126830743D01*
X141078793Y-126800000D01*
X140921207Y-126800000D01*
X140766649Y-126830743D01*
X140621058Y-126891049D01*
X140490030Y-126978599D01*
X140378599Y-127090030D01*
X140291049Y-127221058D01*
X140230743Y-127366649D01*
X140200000Y-127521207D01*
X140200000Y-127678793D01*
X140230743Y-127833351D01*
X140291049Y-127978942D01*
X140378599Y-128109970D01*
X140474241Y-128205612D01*
X140365020Y-128278591D01*
X140337489Y-128306122D01*
X140309970Y-128278603D01*
X140178942Y-128191053D01*
X140033351Y-128130747D01*
X139878793Y-128100004D01*
X139721207Y-128100004D01*
X139566649Y-128130747D01*
X139421058Y-128191053D01*
X139290030Y-128278603D01*
X139194776Y-128373857D01*
X139110013Y-128289094D01*
X138978985Y-128201544D01*
X138833394Y-128141238D01*
X138678836Y-128110495D01*
X138521250Y-128110495D01*
X138366692Y-128141238D01*
X138221101Y-128201544D01*
X138090073Y-128289094D01*
X137978642Y-128400525D01*
X137891092Y-128531553D01*
X137830786Y-128677144D01*
X137800043Y-128831702D01*
X137800043Y-128968034D01*
X137793077Y-128975000D01*
X110187462Y-128975000D01*
X107749471Y-126537010D01*
X107733027Y-126516973D01*
X107653086Y-126451367D01*
X107561881Y-126402617D01*
X107462918Y-126372597D01*
X107385788Y-126365000D01*
X107385780Y-126365000D01*
X107360000Y-126362461D01*
X107334220Y-126365000D01*
X107211372Y-126365000D01*
X107114971Y-126268599D01*
X106983943Y-126181049D01*
X106936041Y-126161207D01*
X130421795Y-126161207D01*
X130421795Y-126318793D01*
X130452538Y-126473351D01*
X130512844Y-126618942D01*
X130600394Y-126749970D01*
X130711825Y-126861401D01*
X130842853Y-126948951D01*
X130988444Y-127009257D01*
X131143002Y-127040000D01*
X131300588Y-127040000D01*
X131455146Y-127009257D01*
X131600737Y-126948951D01*
X131731765Y-126861401D01*
X131753166Y-126840000D01*
X135830526Y-126840000D01*
X135860000Y-126842903D01*
X135889474Y-126840000D01*
X135977621Y-126831318D01*
X136090721Y-126797010D01*
X136194955Y-126741296D01*
X136286317Y-126666317D01*
X136305113Y-126643414D01*
X139008528Y-123940000D01*
X139038793Y-123940000D01*
X139193351Y-123909257D01*
X139338942Y-123848951D01*
X139469970Y-123761401D01*
X139581401Y-123649970D01*
X139668951Y-123518942D01*
X139729257Y-123373351D01*
X139760000Y-123218793D01*
X139760000Y-123188527D01*
X140903419Y-122045109D01*
X140926317Y-122026317D01*
X141001296Y-121934955D01*
X141045103Y-121852997D01*
X141057010Y-121830722D01*
X141091318Y-121717621D01*
X141102903Y-121600000D01*
X141100000Y-121570526D01*
X141100000Y-116748527D01*
X143048528Y-114800000D01*
X143078793Y-114800000D01*
X143233351Y-114769257D01*
X143378942Y-114708951D01*
X143509970Y-114621401D01*
X143621401Y-114509970D01*
X143708951Y-114378942D01*
X143769257Y-114233351D01*
X143795782Y-114100000D01*
X154220526Y-114100000D01*
X154250000Y-114102903D01*
X154279474Y-114100000D01*
X154367621Y-114091318D01*
X154480721Y-114057010D01*
X154584955Y-114001296D01*
X154676317Y-113926317D01*
X154695113Y-113903414D01*
X156596593Y-112001935D01*
X157850000Y-112001935D01*
X157928414Y-111994212D01*
X158003814Y-111971340D01*
X158073303Y-111934197D01*
X158134211Y-111884211D01*
X158184197Y-111823303D01*
X158221340Y-111753814D01*
X158244212Y-111678414D01*
X158251935Y-111600000D01*
X158251935Y-109900000D01*
X158244212Y-109821586D01*
X158221340Y-109746186D01*
X158184197Y-109676697D01*
X158134211Y-109615789D01*
X158073303Y-109565803D01*
X158003814Y-109528660D01*
X157928414Y-109505788D01*
X157850000Y-109498065D01*
X156150000Y-109498065D01*
X156071586Y-109505788D01*
X155996186Y-109528660D01*
X155926697Y-109565803D01*
X155865789Y-109615789D01*
X155815803Y-109676697D01*
X155778660Y-109746186D01*
X155755788Y-109821586D01*
X155748065Y-109900000D01*
X155748065Y-111153407D01*
X155573647Y-111327825D01*
X155661963Y-111114611D01*
X155710000Y-110873114D01*
X155710000Y-110626886D01*
X155661963Y-110385389D01*
X155567735Y-110157903D01*
X155430938Y-109953172D01*
X155256828Y-109779062D01*
X155052097Y-109642265D01*
X154824611Y-109548037D01*
X154583114Y-109500000D01*
X154336886Y-109500000D01*
X154095389Y-109548037D01*
X153867903Y-109642265D01*
X153663172Y-109779062D01*
X153489062Y-109953172D01*
X153352265Y-110157903D01*
X153258037Y-110385389D01*
X153215348Y-110599998D01*
X153136648Y-110599998D01*
X153221664Y-110391967D01*
X153126804Y-110144904D01*
X152985567Y-109921095D01*
X152803381Y-109729140D01*
X152587247Y-109576416D01*
X152345471Y-109468793D01*
X152278032Y-109448342D01*
X152070000Y-109534218D01*
X152070000Y-110600000D01*
X152090000Y-110600000D01*
X152090000Y-110900000D01*
X152070000Y-110900000D01*
X152070000Y-111965782D01*
X152278032Y-112051658D01*
X152345471Y-112031207D01*
X152509224Y-111958315D01*
X152017550Y-112449989D01*
X148422472Y-112449989D01*
X148948292Y-111924170D01*
X149015389Y-111951963D01*
X149256886Y-112000000D01*
X149503114Y-112000000D01*
X149744611Y-111951963D01*
X149972097Y-111857735D01*
X150176828Y-111720938D01*
X150350938Y-111546828D01*
X150487735Y-111342097D01*
X150581963Y-111114611D01*
X150624652Y-110900002D01*
X150703352Y-110900002D01*
X150618336Y-111108033D01*
X150713196Y-111355096D01*
X150854433Y-111578905D01*
X151036619Y-111770860D01*
X151252753Y-111923584D01*
X151494529Y-112031207D01*
X151561968Y-112051658D01*
X151770000Y-111965782D01*
X151770000Y-110900000D01*
X151750000Y-110900000D01*
X151750000Y-110600000D01*
X151770000Y-110600000D01*
X151770000Y-109534218D01*
X151561968Y-109448342D01*
X151494529Y-109468793D01*
X151252753Y-109576416D01*
X151036619Y-109729140D01*
X150854433Y-109921095D01*
X150713196Y-110144904D01*
X150618336Y-110391967D01*
X150703352Y-110599998D01*
X150624652Y-110599998D01*
X150581963Y-110385389D01*
X150487735Y-110157903D01*
X150350938Y-109953172D01*
X150176828Y-109779062D01*
X149972097Y-109642265D01*
X149744611Y-109548037D01*
X149503114Y-109500000D01*
X149256886Y-109500000D01*
X149015389Y-109548037D01*
X148787903Y-109642265D01*
X148583172Y-109779062D01*
X148409062Y-109953172D01*
X148272265Y-110157903D01*
X148178037Y-110385389D01*
X148130000Y-110626886D01*
X148130000Y-110873114D01*
X148178037Y-111114611D01*
X148205830Y-111181708D01*
X147412539Y-111975000D01*
X147088797Y-111975000D01*
X147204611Y-111951963D01*
X147432097Y-111857735D01*
X147636828Y-111720938D01*
X147810938Y-111546828D01*
X147947735Y-111342097D01*
X148041963Y-111114611D01*
X148090000Y-110873114D01*
X148090000Y-110626886D01*
X148041963Y-110385389D01*
X147947735Y-110157903D01*
X147810938Y-109953172D01*
X147636828Y-109779062D01*
X147432097Y-109642265D01*
X147204611Y-109548037D01*
X146963114Y-109500000D01*
X146716886Y-109500000D01*
X146475389Y-109548037D01*
X146247903Y-109642265D01*
X146043172Y-109779062D01*
X145869062Y-109953172D01*
X145732265Y-110157903D01*
X145638037Y-110385389D01*
X145590000Y-110626886D01*
X145590000Y-110873114D01*
X145638037Y-111114611D01*
X145665830Y-111181709D01*
X145372539Y-111475000D01*
X142225780Y-111475000D01*
X142200000Y-111472461D01*
X142174220Y-111475000D01*
X142174212Y-111475000D01*
X142097082Y-111482597D01*
X141998119Y-111512617D01*
X141906914Y-111561367D01*
X141826973Y-111626973D01*
X141810534Y-111647004D01*
X141334692Y-112122846D01*
X141333951Y-112121058D01*
X141246401Y-111990030D01*
X141134970Y-111878599D01*
X141003942Y-111791049D01*
X140858351Y-111730743D01*
X140703793Y-111700000D01*
X140546207Y-111700000D01*
X140391649Y-111730743D01*
X140246058Y-111791049D01*
X140115030Y-111878599D01*
X140003599Y-111990030D01*
X139916049Y-112121058D01*
X139855743Y-112266649D01*
X139825000Y-112421207D01*
X139825000Y-112557537D01*
X136946979Y-115435560D01*
X136926948Y-115451999D01*
X136910509Y-115472030D01*
X136861341Y-115531941D01*
X136812591Y-115623146D01*
X136782571Y-115722109D01*
X136772435Y-115825026D01*
X136774975Y-115850816D01*
X136774974Y-117282538D01*
X136757538Y-117299974D01*
X136621207Y-117299974D01*
X136466649Y-117330717D01*
X136321058Y-117391023D01*
X136190030Y-117478573D01*
X136078599Y-117590004D01*
X135991049Y-117721032D01*
X135930743Y-117866623D01*
X135900000Y-118021181D01*
X135900000Y-118178767D01*
X135930743Y-118333325D01*
X135991049Y-118478916D01*
X136078599Y-118609944D01*
X136190030Y-118721375D01*
X136321058Y-118808925D01*
X136466649Y-118869231D01*
X136621207Y-118899974D01*
X136778793Y-118899974D01*
X136933351Y-118869231D01*
X137078942Y-118808925D01*
X137209970Y-118721375D01*
X137321401Y-118609944D01*
X137408951Y-118478916D01*
X137469257Y-118333325D01*
X137475000Y-118304451D01*
X137475001Y-121282537D01*
X135957539Y-122800000D01*
X135821207Y-122800000D01*
X135666649Y-122830743D01*
X135521058Y-122891049D01*
X135390030Y-122978599D01*
X135278599Y-123090030D01*
X135191049Y-123221058D01*
X135130743Y-123366649D01*
X135100000Y-123521207D01*
X135100000Y-123678793D01*
X135130743Y-123833351D01*
X135191049Y-123978942D01*
X135278599Y-124109970D01*
X135390030Y-124221401D01*
X135521058Y-124308951D01*
X135666649Y-124369257D01*
X135821207Y-124400000D01*
X135978793Y-124400000D01*
X136133351Y-124369257D01*
X136278942Y-124308951D01*
X136409970Y-124221401D01*
X136521401Y-124109970D01*
X136608951Y-123978942D01*
X136669257Y-123833351D01*
X136700000Y-123678793D01*
X136700000Y-123542461D01*
X138352996Y-121889466D01*
X138373027Y-121873027D01*
X138438633Y-121793086D01*
X138487383Y-121701881D01*
X138517403Y-121602918D01*
X138525000Y-121525788D01*
X138525000Y-121525781D01*
X138527539Y-121500001D01*
X138525000Y-121474221D01*
X138525000Y-119150879D01*
X138646217Y-119174990D01*
X138700000Y-119174990D01*
X138700000Y-119178793D01*
X138730743Y-119333351D01*
X138791049Y-119478942D01*
X138878599Y-119609970D01*
X138990030Y-119721401D01*
X139121058Y-119808951D01*
X139266649Y-119869257D01*
X139421207Y-119900000D01*
X139578793Y-119900000D01*
X139733351Y-119869257D01*
X139878942Y-119808951D01*
X139900001Y-119794880D01*
X139900001Y-121351471D01*
X138911473Y-122340000D01*
X138881207Y-122340000D01*
X138726649Y-122370743D01*
X138581058Y-122431049D01*
X138450030Y-122518599D01*
X138338599Y-122630030D01*
X138251049Y-122761058D01*
X138190743Y-122906649D01*
X138160000Y-123061207D01*
X138160000Y-123091472D01*
X135611473Y-125640000D01*
X131753166Y-125640000D01*
X131731765Y-125618599D01*
X131600737Y-125531049D01*
X131455146Y-125470743D01*
X131300588Y-125440000D01*
X131143002Y-125440000D01*
X130988444Y-125470743D01*
X130842853Y-125531049D01*
X130711825Y-125618599D01*
X130600394Y-125730030D01*
X130512844Y-125861058D01*
X130452538Y-126006649D01*
X130421795Y-126161207D01*
X106936041Y-126161207D01*
X106838352Y-126120743D01*
X106683794Y-126090000D01*
X106526208Y-126090000D01*
X106371650Y-126120743D01*
X106226059Y-126181049D01*
X106095031Y-126268599D01*
X105983600Y-126380030D01*
X105896050Y-126511058D01*
X105835744Y-126656649D01*
X105805001Y-126811207D01*
X92450000Y-126811207D01*
X92450000Y-110934506D01*
X93777626Y-110934506D01*
X93943389Y-111209495D01*
X94297198Y-111382782D01*
X94678015Y-111483715D01*
X95071205Y-111508414D01*
X95461659Y-111455932D01*
X95834371Y-111328285D01*
X96056611Y-111209495D01*
X96222374Y-110934506D01*
X95000000Y-109712132D01*
X93777626Y-110934506D01*
X92450000Y-110934506D01*
X92450000Y-109571205D01*
X92991586Y-109571205D01*
X93044068Y-109961659D01*
X93171715Y-110334371D01*
X93290505Y-110556611D01*
X93565494Y-110722374D01*
X94787868Y-109500000D01*
X95212132Y-109500000D01*
X96434506Y-110722374D01*
X96709495Y-110556611D01*
X96882782Y-110202802D01*
X96983715Y-109821985D01*
X97008414Y-109428795D01*
X96955932Y-109038341D01*
X96828285Y-108665629D01*
X96709495Y-108443389D01*
X96490465Y-108311358D01*
X132450000Y-108311358D01*
X132450000Y-108488642D01*
X132484586Y-108662520D01*
X132552430Y-108826310D01*
X132650924Y-108973717D01*
X132776283Y-109099076D01*
X132923690Y-109197570D01*
X133087480Y-109265414D01*
X133261358Y-109300000D01*
X133438642Y-109300000D01*
X133612520Y-109265414D01*
X133776310Y-109197570D01*
X133923717Y-109099076D01*
X134049076Y-108973717D01*
X134147570Y-108826310D01*
X134215414Y-108662520D01*
X134250000Y-108488642D01*
X134250000Y-108311358D01*
X136850000Y-108311358D01*
X136850000Y-108488642D01*
X136884586Y-108662520D01*
X136952430Y-108826310D01*
X137050924Y-108973717D01*
X137176283Y-109099076D01*
X137323690Y-109197570D01*
X137487480Y-109265414D01*
X137661358Y-109300000D01*
X137838642Y-109300000D01*
X138012520Y-109265414D01*
X138176310Y-109197570D01*
X138323717Y-109099076D01*
X138449076Y-108973717D01*
X138547570Y-108826310D01*
X138615414Y-108662520D01*
X138650000Y-108488642D01*
X138650000Y-108311358D01*
X138615414Y-108137480D01*
X138547570Y-107973690D01*
X138449076Y-107826283D01*
X138323717Y-107700924D01*
X138176310Y-107602430D01*
X138012520Y-107534586D01*
X137838642Y-107500000D01*
X137661358Y-107500000D01*
X137487480Y-107534586D01*
X137323690Y-107602430D01*
X137176283Y-107700924D01*
X137050924Y-107826283D01*
X136952430Y-107973690D01*
X136884586Y-108137480D01*
X136850000Y-108311358D01*
X134250000Y-108311358D01*
X134215414Y-108137480D01*
X134147570Y-107973690D01*
X134049076Y-107826283D01*
X133923717Y-107700924D01*
X133776310Y-107602430D01*
X133612520Y-107534586D01*
X133438642Y-107500000D01*
X133261358Y-107500000D01*
X133087480Y-107534586D01*
X132923690Y-107602430D01*
X132776283Y-107700924D01*
X132650924Y-107826283D01*
X132552430Y-107973690D01*
X132484586Y-108137480D01*
X132450000Y-108311358D01*
X96490465Y-108311358D01*
X96434506Y-108277626D01*
X95212132Y-109500000D01*
X94787868Y-109500000D01*
X93565494Y-108277626D01*
X93290505Y-108443389D01*
X93117218Y-108797198D01*
X93016285Y-109178015D01*
X92991586Y-109571205D01*
X92450000Y-109571205D01*
X92450000Y-108065494D01*
X93777626Y-108065494D01*
X95000000Y-109287868D01*
X96222374Y-108065494D01*
X96056611Y-107790505D01*
X95702802Y-107617218D01*
X95321985Y-107516285D01*
X94928795Y-107491586D01*
X94538341Y-107544068D01*
X94165629Y-107671715D01*
X93943389Y-107790505D01*
X93777626Y-108065494D01*
X92450000Y-108065494D01*
X92450000Y-106653017D01*
X152000000Y-106653017D01*
X152000000Y-107046983D01*
X152076859Y-107433378D01*
X152227623Y-107797355D01*
X152446499Y-108124926D01*
X152725074Y-108403501D01*
X153052645Y-108622377D01*
X153416622Y-108773141D01*
X153803017Y-108850000D01*
X154196983Y-108850000D01*
X154583378Y-108773141D01*
X154947355Y-108622377D01*
X155274926Y-108403501D01*
X155553501Y-108124926D01*
X155772377Y-107797355D01*
X155923141Y-107433378D01*
X156000000Y-107046983D01*
X156000000Y-106653017D01*
X155923141Y-106266622D01*
X155772377Y-105902645D01*
X155553501Y-105575074D01*
X155274926Y-105296499D01*
X154947355Y-105077623D01*
X154583378Y-104926859D01*
X154196983Y-104850000D01*
X153803017Y-104850000D01*
X153416622Y-104926859D01*
X153052645Y-105077623D01*
X152725074Y-105296499D01*
X152446499Y-105575074D01*
X152227623Y-105902645D01*
X152076859Y-106266622D01*
X152000000Y-106653017D01*
X92450000Y-106653017D01*
X92450000Y-103000000D01*
X93098065Y-103000000D01*
X93098065Y-106000000D01*
X93105788Y-106078414D01*
X93128660Y-106153814D01*
X93165803Y-106223303D01*
X93215789Y-106284211D01*
X93276697Y-106334197D01*
X93346186Y-106371340D01*
X93421586Y-106394212D01*
X93500000Y-106401935D01*
X96500000Y-106401935D01*
X96578414Y-106394212D01*
X96653814Y-106371340D01*
X96723303Y-106334197D01*
X96784211Y-106284211D01*
X96834197Y-106223303D01*
X96871340Y-106153814D01*
X96894212Y-106078414D01*
X96901935Y-106000000D01*
X96901935Y-103000000D01*
X96894212Y-102921586D01*
X96871340Y-102846186D01*
X96834197Y-102776697D01*
X96784211Y-102715789D01*
X96723303Y-102665803D01*
X96653814Y-102628660D01*
X96578414Y-102605788D01*
X96500000Y-102598065D01*
X93500000Y-102598065D01*
X93421586Y-102605788D01*
X93346186Y-102628660D01*
X93276697Y-102665803D01*
X93215789Y-102715789D01*
X93165803Y-102776697D01*
X93128660Y-102846186D01*
X93105788Y-102921586D01*
X93098065Y-103000000D01*
X92450000Y-103000000D01*
X92450000Y-102450000D01*
X158550000Y-102450000D01*
X158550001Y-146550000D01*
G37*
X158550001Y-146550000D02*
X92450000Y-146550000D01*
X92450000Y-141803017D01*
X95000000Y-141803017D01*
X95000000Y-142196983D01*
X95076859Y-142583378D01*
X95227623Y-142947355D01*
X95446499Y-143274926D01*
X95725074Y-143553501D01*
X96052645Y-143772377D01*
X96416622Y-143923141D01*
X96803017Y-144000000D01*
X97196983Y-144000000D01*
X97583378Y-143923141D01*
X97947355Y-143772377D01*
X98274926Y-143553501D01*
X98553501Y-143274926D01*
X98772377Y-142947355D01*
X98923141Y-142583378D01*
X99000000Y-142196983D01*
X99000000Y-141803017D01*
X152000000Y-141803017D01*
X152000000Y-142196983D01*
X152076859Y-142583378D01*
X152227623Y-142947355D01*
X152446499Y-143274926D01*
X152725074Y-143553501D01*
X153052645Y-143772377D01*
X153416622Y-143923141D01*
X153803017Y-144000000D01*
X154196983Y-144000000D01*
X154583378Y-143923141D01*
X154947355Y-143772377D01*
X155274926Y-143553501D01*
X155553501Y-143274926D01*
X155772377Y-142947355D01*
X155923141Y-142583378D01*
X156000000Y-142196983D01*
X156000000Y-141803017D01*
X155923141Y-141416622D01*
X155772377Y-141052645D01*
X155553501Y-140725074D01*
X155274926Y-140446499D01*
X154947355Y-140227623D01*
X154583378Y-140076859D01*
X154196983Y-140000000D01*
X153803017Y-140000000D01*
X153416622Y-140076859D01*
X153052645Y-140227623D01*
X152725074Y-140446499D01*
X152446499Y-140725074D01*
X152227623Y-141052645D01*
X152076859Y-141416622D01*
X152000000Y-141803017D01*
X99000000Y-141803017D01*
X98923141Y-141416622D01*
X98772377Y-141052645D01*
X98553501Y-140725074D01*
X98274926Y-140446499D01*
X97947355Y-140227623D01*
X97583378Y-140076859D01*
X97196983Y-140000000D01*
X96803017Y-140000000D01*
X96416622Y-140076859D01*
X96052645Y-140227623D01*
X95725074Y-140446499D01*
X95446499Y-140725074D01*
X95227623Y-141052645D01*
X95076859Y-141416622D01*
X95000000Y-141803017D01*
X92450000Y-141803017D01*
X92450000Y-126811207D01*
X105805001Y-126811207D01*
X105805001Y-126968793D01*
X105835744Y-127123351D01*
X105896050Y-127268942D01*
X105983600Y-127399970D01*
X106095031Y-127511401D01*
X106226059Y-127598951D01*
X106371650Y-127659257D01*
X106526208Y-127690000D01*
X106683794Y-127690000D01*
X106838352Y-127659257D01*
X106983943Y-127598951D01*
X107114971Y-127511401D01*
X107176955Y-127449417D01*
X107387023Y-127659484D01*
X107238793Y-127630000D01*
X107081207Y-127630000D01*
X106926649Y-127660743D01*
X106781058Y-127721049D01*
X106650030Y-127808599D01*
X106538599Y-127920030D01*
X106451049Y-128051058D01*
X106390743Y-128196649D01*
X106360000Y-128351207D01*
X106360000Y-128508793D01*
X106390743Y-128663351D01*
X106451049Y-128808942D01*
X106538599Y-128939970D01*
X106650030Y-129051401D01*
X106781058Y-129138951D01*
X106926649Y-129199257D01*
X107081207Y-129230000D01*
X107238793Y-129230000D01*
X107393351Y-129199257D01*
X107538942Y-129138951D01*
X107669970Y-129051401D01*
X107766371Y-128955000D01*
X107812539Y-128955000D01*
X108931360Y-130073822D01*
X108920542Y-130087004D01*
X108307539Y-130700008D01*
X108171207Y-130700008D01*
X108016649Y-130730751D01*
X107871058Y-130791057D01*
X107740030Y-130878607D01*
X107628599Y-130990038D01*
X107541049Y-131121066D01*
X107480743Y-131266657D01*
X107450000Y-131421215D01*
X107450000Y-131578801D01*
X107480743Y-131733359D01*
X107541049Y-131878950D01*
X107628599Y-132009978D01*
X107740030Y-132121409D01*
X107871058Y-132208959D01*
X108016649Y-132269265D01*
X108171207Y-132300008D01*
X108328793Y-132300008D01*
X108483351Y-132269265D01*
X108628942Y-132208959D01*
X108759970Y-132121409D01*
X108871401Y-132009978D01*
X108958951Y-131878950D01*
X109019257Y-131733359D01*
X109050000Y-131578801D01*
X109050000Y-131442469D01*
X109527470Y-130965000D01*
X118453637Y-130965000D01*
X118428599Y-130990038D01*
X118341049Y-131121066D01*
X118280743Y-131266657D01*
X118250000Y-131421215D01*
X118250000Y-131578801D01*
X118280743Y-131733359D01*
X118341049Y-131878950D01*
X118428599Y-132009978D01*
X118540030Y-132121409D01*
X118671058Y-132208959D01*
X118816649Y-132269265D01*
X118971207Y-132300008D01*
X119128793Y-132300008D01*
X119283351Y-132269265D01*
X119428942Y-132208959D01*
X119559970Y-132121409D01*
X119671401Y-132009978D01*
X119758951Y-131878950D01*
X119819257Y-131733359D01*
X119850000Y-131578801D01*
X119850000Y-131442470D01*
X119877459Y-131415011D01*
X129115405Y-131415011D01*
X129107233Y-131427242D01*
X129046927Y-131572833D01*
X129016184Y-131727391D01*
X129016184Y-131884977D01*
X129046927Y-132039535D01*
X129107233Y-132185126D01*
X129194783Y-132316154D01*
X129306214Y-132427585D01*
X129437242Y-132515135D01*
X129582833Y-132575441D01*
X129737391Y-132606184D01*
X129894977Y-132606184D01*
X130049535Y-132575441D01*
X130195126Y-132515135D01*
X130326154Y-132427585D01*
X130437585Y-132316154D01*
X130525135Y-132185126D01*
X130585441Y-132039535D01*
X130616184Y-131884977D01*
X130616184Y-131865022D01*
X140534198Y-131865022D01*
X140559978Y-131867561D01*
X140585758Y-131865022D01*
X140585766Y-131865022D01*
X140662896Y-131857425D01*
X140761859Y-131827405D01*
X140853064Y-131778655D01*
X140933005Y-131713049D01*
X140949449Y-131693012D01*
X142552996Y-130089466D01*
X142573027Y-130073027D01*
X142638633Y-129993086D01*
X142687383Y-129901881D01*
X142717403Y-129802918D01*
X142725000Y-129725788D01*
X142725000Y-129725781D01*
X142727539Y-129700001D01*
X142725000Y-129674221D01*
X142725000Y-128206371D01*
X142821401Y-128109970D01*
X142908951Y-127978942D01*
X142969257Y-127833351D01*
X143000000Y-127678793D01*
X143000000Y-127521207D01*
X142969257Y-127366649D01*
X142908951Y-127221058D01*
X142821401Y-127090030D01*
X142709970Y-126978599D01*
X142578942Y-126891049D01*
X142433351Y-126830743D01*
X142278793Y-126800000D01*
X142121207Y-126800000D01*
X141966649Y-126830743D01*
X141821058Y-126891049D01*
X141690030Y-126978599D01*
X141600000Y-127068629D01*
X141509970Y-126978599D01*
X141378942Y-126891049D01*
X141233351Y-126830743D01*
X141078793Y-126800000D01*
X140921207Y-126800000D01*
X140766649Y-126830743D01*
X140621058Y-126891049D01*
X140490030Y-126978599D01*
X140378599Y-127090030D01*
X140291049Y-127221058D01*
X140230743Y-127366649D01*
X140200000Y-127521207D01*
X140200000Y-127678793D01*
X140230743Y-127833351D01*
X140291049Y-127978942D01*
X140378599Y-128109970D01*
X140474241Y-128205612D01*
X140365020Y-128278591D01*
X140337489Y-128306122D01*
X140309970Y-128278603D01*
X140178942Y-128191053D01*
X140033351Y-128130747D01*
X139878793Y-128100004D01*
X139721207Y-128100004D01*
X139566649Y-128130747D01*
X139421058Y-128191053D01*
X139290030Y-128278603D01*
X139194776Y-128373857D01*
X139110013Y-128289094D01*
X138978985Y-128201544D01*
X138833394Y-128141238D01*
X138678836Y-128110495D01*
X138521250Y-128110495D01*
X138366692Y-128141238D01*
X138221101Y-128201544D01*
X138090073Y-128289094D01*
X137978642Y-128400525D01*
X137891092Y-128531553D01*
X137830786Y-128677144D01*
X137800043Y-128831702D01*
X137800043Y-128968034D01*
X137793077Y-128975000D01*
X110187462Y-128975000D01*
X107749471Y-126537010D01*
X107733027Y-126516973D01*
X107653086Y-126451367D01*
X107561881Y-126402617D01*
X107462918Y-126372597D01*
X107385788Y-126365000D01*
X107385780Y-126365000D01*
X107360000Y-126362461D01*
X107334220Y-126365000D01*
X107211372Y-126365000D01*
X107114971Y-126268599D01*
X106983943Y-126181049D01*
X106936041Y-126161207D01*
X130421795Y-126161207D01*
X130421795Y-126318793D01*
X130452538Y-126473351D01*
X130512844Y-126618942D01*
X130600394Y-126749970D01*
X130711825Y-126861401D01*
X130842853Y-126948951D01*
X130988444Y-127009257D01*
X131143002Y-127040000D01*
X131300588Y-127040000D01*
X131455146Y-127009257D01*
X131600737Y-126948951D01*
X131731765Y-126861401D01*
X131753166Y-126840000D01*
X135830526Y-126840000D01*
X135860000Y-126842903D01*
X135889474Y-126840000D01*
X135977621Y-126831318D01*
X136090721Y-126797010D01*
X136194955Y-126741296D01*
X136286317Y-126666317D01*
X136305113Y-126643414D01*
X139008528Y-123940000D01*
X139038793Y-123940000D01*
X139193351Y-123909257D01*
X139338942Y-123848951D01*
X139469970Y-123761401D01*
X139581401Y-123649970D01*
X139668951Y-123518942D01*
X139729257Y-123373351D01*
X139760000Y-123218793D01*
X139760000Y-123188527D01*
X140903419Y-122045109D01*
X140926317Y-122026317D01*
X141001296Y-121934955D01*
X141045103Y-121852997D01*
X141057010Y-121830722D01*
X141091318Y-121717621D01*
X141102903Y-121600000D01*
X141100000Y-121570526D01*
X141100000Y-116748527D01*
X143048528Y-114800000D01*
X143078793Y-114800000D01*
X143233351Y-114769257D01*
X143378942Y-114708951D01*
X143509970Y-114621401D01*
X143621401Y-114509970D01*
X143708951Y-114378942D01*
X143769257Y-114233351D01*
X143795782Y-114100000D01*
X154220526Y-114100000D01*
X154250000Y-114102903D01*
X154279474Y-114100000D01*
X154367621Y-114091318D01*
X154480721Y-114057010D01*
X154584955Y-114001296D01*
X154676317Y-113926317D01*
X154695113Y-113903414D01*
X156596593Y-112001935D01*
X157850000Y-112001935D01*
X157928414Y-111994212D01*
X158003814Y-111971340D01*
X158073303Y-111934197D01*
X158134211Y-111884211D01*
X158184197Y-111823303D01*
X158221340Y-111753814D01*
X158244212Y-111678414D01*
X158251935Y-111600000D01*
X158251935Y-109900000D01*
X158244212Y-109821586D01*
X158221340Y-109746186D01*
X158184197Y-109676697D01*
X158134211Y-109615789D01*
X158073303Y-109565803D01*
X158003814Y-109528660D01*
X157928414Y-109505788D01*
X157850000Y-109498065D01*
X156150000Y-109498065D01*
X156071586Y-109505788D01*
X155996186Y-109528660D01*
X155926697Y-109565803D01*
X155865789Y-109615789D01*
X155815803Y-109676697D01*
X155778660Y-109746186D01*
X155755788Y-109821586D01*
X155748065Y-109900000D01*
X155748065Y-111153407D01*
X155573647Y-111327825D01*
X155661963Y-111114611D01*
X155710000Y-110873114D01*
X155710000Y-110626886D01*
X155661963Y-110385389D01*
X155567735Y-110157903D01*
X155430938Y-109953172D01*
X155256828Y-109779062D01*
X155052097Y-109642265D01*
X154824611Y-109548037D01*
X154583114Y-109500000D01*
X154336886Y-109500000D01*
X154095389Y-109548037D01*
X153867903Y-109642265D01*
X153663172Y-109779062D01*
X153489062Y-109953172D01*
X153352265Y-110157903D01*
X153258037Y-110385389D01*
X153215348Y-110599998D01*
X153136648Y-110599998D01*
X153221664Y-110391967D01*
X153126804Y-110144904D01*
X152985567Y-109921095D01*
X152803381Y-109729140D01*
X152587247Y-109576416D01*
X152345471Y-109468793D01*
X152278032Y-109448342D01*
X152070000Y-109534218D01*
X152070000Y-110600000D01*
X152090000Y-110600000D01*
X152090000Y-110900000D01*
X152070000Y-110900000D01*
X152070000Y-111965782D01*
X152278032Y-112051658D01*
X152345471Y-112031207D01*
X152509224Y-111958315D01*
X152017550Y-112449989D01*
X148422472Y-112449989D01*
X148948292Y-111924170D01*
X149015389Y-111951963D01*
X149256886Y-112000000D01*
X149503114Y-112000000D01*
X149744611Y-111951963D01*
X149972097Y-111857735D01*
X150176828Y-111720938D01*
X150350938Y-111546828D01*
X150487735Y-111342097D01*
X150581963Y-111114611D01*
X150624652Y-110900002D01*
X150703352Y-110900002D01*
X150618336Y-111108033D01*
X150713196Y-111355096D01*
X150854433Y-111578905D01*
X151036619Y-111770860D01*
X151252753Y-111923584D01*
X151494529Y-112031207D01*
X151561968Y-112051658D01*
X151770000Y-111965782D01*
X151770000Y-110900000D01*
X151750000Y-110900000D01*
X151750000Y-110600000D01*
X151770000Y-110600000D01*
X151770000Y-109534218D01*
X151561968Y-109448342D01*
X151494529Y-109468793D01*
X151252753Y-109576416D01*
X151036619Y-109729140D01*
X150854433Y-109921095D01*
X150713196Y-110144904D01*
X150618336Y-110391967D01*
X150703352Y-110599998D01*
X150624652Y-110599998D01*
X150581963Y-110385389D01*
X150487735Y-110157903D01*
X150350938Y-109953172D01*
X150176828Y-109779062D01*
X149972097Y-109642265D01*
X149744611Y-109548037D01*
X149503114Y-109500000D01*
X149256886Y-109500000D01*
X149015389Y-109548037D01*
X148787903Y-109642265D01*
X148583172Y-109779062D01*
X148409062Y-109953172D01*
X148272265Y-110157903D01*
X148178037Y-110385389D01*
X148130000Y-110626886D01*
X148130000Y-110873114D01*
X148178037Y-111114611D01*
X148205830Y-111181708D01*
X147412539Y-111975000D01*
X147088797Y-111975000D01*
X147204611Y-111951963D01*
X147432097Y-111857735D01*
X147636828Y-111720938D01*
X147810938Y-111546828D01*
X147947735Y-111342097D01*
X148041963Y-111114611D01*
X148090000Y-110873114D01*
X148090000Y-110626886D01*
X148041963Y-110385389D01*
X147947735Y-110157903D01*
X147810938Y-109953172D01*
X147636828Y-109779062D01*
X147432097Y-109642265D01*
X147204611Y-109548037D01*
X146963114Y-109500000D01*
X146716886Y-109500000D01*
X146475389Y-109548037D01*
X146247903Y-109642265D01*
X146043172Y-109779062D01*
X145869062Y-109953172D01*
X145732265Y-110157903D01*
X145638037Y-110385389D01*
X145590000Y-110626886D01*
X145590000Y-110873114D01*
X145638037Y-111114611D01*
X145665830Y-111181709D01*
X145372539Y-111475000D01*
X142225780Y-111475000D01*
X142200000Y-111472461D01*
X142174220Y-111475000D01*
X142174212Y-111475000D01*
X142097082Y-111482597D01*
X141998119Y-111512617D01*
X141906914Y-111561367D01*
X141826973Y-111626973D01*
X141810534Y-111647004D01*
X141334692Y-112122846D01*
X141333951Y-112121058D01*
X141246401Y-111990030D01*
X141134970Y-111878599D01*
X141003942Y-111791049D01*
X140858351Y-111730743D01*
X140703793Y-111700000D01*
X140546207Y-111700000D01*
X140391649Y-111730743D01*
X140246058Y-111791049D01*
X140115030Y-111878599D01*
X140003599Y-111990030D01*
X139916049Y-112121058D01*
X139855743Y-112266649D01*
X139825000Y-112421207D01*
X139825000Y-112557537D01*
X136946979Y-115435560D01*
X136926948Y-115451999D01*
X136910509Y-115472030D01*
X136861341Y-115531941D01*
X136812591Y-115623146D01*
X136782571Y-115722109D01*
X136772435Y-115825026D01*
X136774975Y-115850816D01*
X136774974Y-117282538D01*
X136757538Y-117299974D01*
X136621207Y-117299974D01*
X136466649Y-117330717D01*
X136321058Y-117391023D01*
X136190030Y-117478573D01*
X136078599Y-117590004D01*
X135991049Y-117721032D01*
X135930743Y-117866623D01*
X135900000Y-118021181D01*
X135900000Y-118178767D01*
X135930743Y-118333325D01*
X135991049Y-118478916D01*
X136078599Y-118609944D01*
X136190030Y-118721375D01*
X136321058Y-118808925D01*
X136466649Y-118869231D01*
X136621207Y-118899974D01*
X136778793Y-118899974D01*
X136933351Y-118869231D01*
X137078942Y-118808925D01*
X137209970Y-118721375D01*
X137321401Y-118609944D01*
X137408951Y-118478916D01*
X137469257Y-118333325D01*
X137475000Y-118304451D01*
X137475001Y-121282537D01*
X135957539Y-122800000D01*
X135821207Y-122800000D01*
X135666649Y-122830743D01*
X135521058Y-122891049D01*
X135390030Y-122978599D01*
X135278599Y-123090030D01*
X135191049Y-123221058D01*
X135130743Y-123366649D01*
X135100000Y-123521207D01*
X135100000Y-123678793D01*
X135130743Y-123833351D01*
X135191049Y-123978942D01*
X135278599Y-124109970D01*
X135390030Y-124221401D01*
X135521058Y-124308951D01*
X135666649Y-124369257D01*
X135821207Y-124400000D01*
X135978793Y-124400000D01*
X136133351Y-124369257D01*
X136278942Y-124308951D01*
X136409970Y-124221401D01*
X136521401Y-124109970D01*
X136608951Y-123978942D01*
X136669257Y-123833351D01*
X136700000Y-123678793D01*
X136700000Y-123542461D01*
X138352996Y-121889466D01*
X138373027Y-121873027D01*
X138438633Y-121793086D01*
X138487383Y-121701881D01*
X138517403Y-121602918D01*
X138525000Y-121525788D01*
X138525000Y-121525781D01*
X138527539Y-121500001D01*
X138525000Y-121474221D01*
X138525000Y-119150879D01*
X138646217Y-119174990D01*
X138700000Y-119174990D01*
X138700000Y-119178793D01*
X138730743Y-119333351D01*
X138791049Y-119478942D01*
X138878599Y-119609970D01*
X138990030Y-119721401D01*
X139121058Y-119808951D01*
X139266649Y-119869257D01*
X139421207Y-119900000D01*
X139578793Y-119900000D01*
X139733351Y-119869257D01*
X139878942Y-119808951D01*
X139900001Y-119794880D01*
X139900001Y-121351471D01*
X138911473Y-122340000D01*
X138881207Y-122340000D01*
X138726649Y-122370743D01*
X138581058Y-122431049D01*
X138450030Y-122518599D01*
X138338599Y-122630030D01*
X138251049Y-122761058D01*
X138190743Y-122906649D01*
X138160000Y-123061207D01*
X138160000Y-123091472D01*
X135611473Y-125640000D01*
X131753166Y-125640000D01*
X131731765Y-125618599D01*
X131600737Y-125531049D01*
X131455146Y-125470743D01*
X131300588Y-125440000D01*
X131143002Y-125440000D01*
X130988444Y-125470743D01*
X130842853Y-125531049D01*
X130711825Y-125618599D01*
X130600394Y-125730030D01*
X130512844Y-125861058D01*
X130452538Y-126006649D01*
X130421795Y-126161207D01*
X106936041Y-126161207D01*
X106838352Y-126120743D01*
X106683794Y-126090000D01*
X106526208Y-126090000D01*
X106371650Y-126120743D01*
X106226059Y-126181049D01*
X106095031Y-126268599D01*
X105983600Y-126380030D01*
X105896050Y-126511058D01*
X105835744Y-126656649D01*
X105805001Y-126811207D01*
X92450000Y-126811207D01*
X92450000Y-110934506D01*
X93777626Y-110934506D01*
X93943389Y-111209495D01*
X94297198Y-111382782D01*
X94678015Y-111483715D01*
X95071205Y-111508414D01*
X95461659Y-111455932D01*
X95834371Y-111328285D01*
X96056611Y-111209495D01*
X96222374Y-110934506D01*
X95000000Y-109712132D01*
X93777626Y-110934506D01*
X92450000Y-110934506D01*
X92450000Y-109571205D01*
X92991586Y-109571205D01*
X93044068Y-109961659D01*
X93171715Y-110334371D01*
X93290505Y-110556611D01*
X93565494Y-110722374D01*
X94787868Y-109500000D01*
X95212132Y-109500000D01*
X96434506Y-110722374D01*
X96709495Y-110556611D01*
X96882782Y-110202802D01*
X96983715Y-109821985D01*
X97008414Y-109428795D01*
X96955932Y-109038341D01*
X96828285Y-108665629D01*
X96709495Y-108443389D01*
X96490465Y-108311358D01*
X132450000Y-108311358D01*
X132450000Y-108488642D01*
X132484586Y-108662520D01*
X132552430Y-108826310D01*
X132650924Y-108973717D01*
X132776283Y-109099076D01*
X132923690Y-109197570D01*
X133087480Y-109265414D01*
X133261358Y-109300000D01*
X133438642Y-109300000D01*
X133612520Y-109265414D01*
X133776310Y-109197570D01*
X133923717Y-109099076D01*
X134049076Y-108973717D01*
X134147570Y-108826310D01*
X134215414Y-108662520D01*
X134250000Y-108488642D01*
X134250000Y-108311358D01*
X136850000Y-108311358D01*
X136850000Y-108488642D01*
X136884586Y-108662520D01*
X136952430Y-108826310D01*
X137050924Y-108973717D01*
X137176283Y-109099076D01*
X137323690Y-109197570D01*
X137487480Y-109265414D01*
X137661358Y-109300000D01*
X137838642Y-109300000D01*
X138012520Y-109265414D01*
X138176310Y-109197570D01*
X138323717Y-109099076D01*
X138449076Y-108973717D01*
X138547570Y-108826310D01*
X138615414Y-108662520D01*
X138650000Y-108488642D01*
X138650000Y-108311358D01*
X138615414Y-108137480D01*
X138547570Y-107973690D01*
X138449076Y-107826283D01*
X138323717Y-107700924D01*
X138176310Y-107602430D01*
X138012520Y-107534586D01*
X137838642Y-107500000D01*
X137661358Y-107500000D01*
X137487480Y-107534586D01*
X137323690Y-107602430D01*
X137176283Y-107700924D01*
X137050924Y-107826283D01*
X136952430Y-107973690D01*
X136884586Y-108137480D01*
X136850000Y-108311358D01*
X134250000Y-108311358D01*
X134215414Y-108137480D01*
X134147570Y-107973690D01*
X134049076Y-107826283D01*
X133923717Y-107700924D01*
X133776310Y-107602430D01*
X133612520Y-107534586D01*
X133438642Y-107500000D01*
X133261358Y-107500000D01*
X133087480Y-107534586D01*
X132923690Y-107602430D01*
X132776283Y-107700924D01*
X132650924Y-107826283D01*
X132552430Y-107973690D01*
X132484586Y-108137480D01*
X132450000Y-108311358D01*
X96490465Y-108311358D01*
X96434506Y-108277626D01*
X95212132Y-109500000D01*
X94787868Y-109500000D01*
X93565494Y-108277626D01*
X93290505Y-108443389D01*
X93117218Y-108797198D01*
X93016285Y-109178015D01*
X92991586Y-109571205D01*
X92450000Y-109571205D01*
X92450000Y-108065494D01*
X93777626Y-108065494D01*
X95000000Y-109287868D01*
X96222374Y-108065494D01*
X96056611Y-107790505D01*
X95702802Y-107617218D01*
X95321985Y-107516285D01*
X94928795Y-107491586D01*
X94538341Y-107544068D01*
X94165629Y-107671715D01*
X93943389Y-107790505D01*
X93777626Y-108065494D01*
X92450000Y-108065494D01*
X92450000Y-106653017D01*
X152000000Y-106653017D01*
X152000000Y-107046983D01*
X152076859Y-107433378D01*
X152227623Y-107797355D01*
X152446499Y-108124926D01*
X152725074Y-108403501D01*
X153052645Y-108622377D01*
X153416622Y-108773141D01*
X153803017Y-108850000D01*
X154196983Y-108850000D01*
X154583378Y-108773141D01*
X154947355Y-108622377D01*
X155274926Y-108403501D01*
X155553501Y-108124926D01*
X155772377Y-107797355D01*
X155923141Y-107433378D01*
X156000000Y-107046983D01*
X156000000Y-106653017D01*
X155923141Y-106266622D01*
X155772377Y-105902645D01*
X155553501Y-105575074D01*
X155274926Y-105296499D01*
X154947355Y-105077623D01*
X154583378Y-104926859D01*
X154196983Y-104850000D01*
X153803017Y-104850000D01*
X153416622Y-104926859D01*
X153052645Y-105077623D01*
X152725074Y-105296499D01*
X152446499Y-105575074D01*
X152227623Y-105902645D01*
X152076859Y-106266622D01*
X152000000Y-106653017D01*
X92450000Y-106653017D01*
X92450000Y-103000000D01*
X93098065Y-103000000D01*
X93098065Y-106000000D01*
X93105788Y-106078414D01*
X93128660Y-106153814D01*
X93165803Y-106223303D01*
X93215789Y-106284211D01*
X93276697Y-106334197D01*
X93346186Y-106371340D01*
X93421586Y-106394212D01*
X93500000Y-106401935D01*
X96500000Y-106401935D01*
X96578414Y-106394212D01*
X96653814Y-106371340D01*
X96723303Y-106334197D01*
X96784211Y-106284211D01*
X96834197Y-106223303D01*
X96871340Y-106153814D01*
X96894212Y-106078414D01*
X96901935Y-106000000D01*
X96901935Y-103000000D01*
X96894212Y-102921586D01*
X96871340Y-102846186D01*
X96834197Y-102776697D01*
X96784211Y-102715789D01*
X96723303Y-102665803D01*
X96653814Y-102628660D01*
X96578414Y-102605788D01*
X96500000Y-102598065D01*
X93500000Y-102598065D01*
X93421586Y-102605788D01*
X93346186Y-102628660D01*
X93276697Y-102665803D01*
X93215789Y-102715789D01*
X93165803Y-102776697D01*
X93128660Y-102846186D01*
X93105788Y-102921586D01*
X93098065Y-103000000D01*
X92450000Y-103000000D01*
X92450000Y-102450000D01*
X158550000Y-102450000D01*
X158550001Y-146550000D01*
G36*
X153258037Y-111114611D02*
G01*
X153285830Y-111181709D01*
X153135755Y-111331784D01*
X153221664Y-111108033D01*
X153136648Y-110900002D01*
X153215348Y-110900002D01*
X153258037Y-111114611D01*
G37*
X153258037Y-111114611D02*
X153285830Y-111181709D01*
X153135755Y-111331784D01*
X153221664Y-111108033D01*
X153136648Y-110900002D01*
X153215348Y-110900002D01*
X153258037Y-111114611D01*
G36*
X153350000Y-110163371D02*
G01*
X153258037Y-110385389D01*
X153210000Y-110626886D01*
X153210000Y-110873114D01*
X153258037Y-111114611D01*
X153285830Y-111181709D01*
X152117539Y-112350000D01*
X150400000Y-112350000D01*
X150400000Y-111473402D01*
X150487735Y-111342097D01*
X150581963Y-111114611D01*
X150630000Y-110873114D01*
X150630000Y-110626886D01*
X150581963Y-110385389D01*
X150487735Y-110157903D01*
X150400000Y-110026598D01*
X150400000Y-109400000D01*
X153350000Y-109400000D01*
X153350000Y-110163371D01*
G37*
X153350000Y-110163371D02*
X153258037Y-110385389D01*
X153210000Y-110626886D01*
X153210000Y-110873114D01*
X153258037Y-111114611D01*
X153285830Y-111181709D01*
X152117539Y-112350000D01*
X150400000Y-112350000D01*
X150400000Y-111473402D01*
X150487735Y-111342097D01*
X150581963Y-111114611D01*
X150630000Y-110873114D01*
X150630000Y-110626886D01*
X150581963Y-110385389D01*
X150487735Y-110157903D01*
X150400000Y-110026598D01*
X150400000Y-109400000D01*
X153350000Y-109400000D01*
X153350000Y-110163371D01*
D18*
G36*
X97873000Y-111873000D02*
G01*
X92427000Y-111873000D01*
X92427000Y-106877000D01*
X97873000Y-106877000D01*
X97873000Y-111873000D01*
G37*
X97873000Y-111873000D02*
X92427000Y-111873000D01*
X92427000Y-106877000D01*
X97873000Y-106877000D01*
X97873000Y-111873000D01*
M02*
