G04 #@! TF.GenerationSoftware,KiCad,Pcbnew,5.1.6-c6e7f7d~87~ubuntu20.04.1*
G04 #@! TF.CreationDate,2020-09-01T15:12:56+02:00*
G04 #@! TF.ProjectId,UVDAR_Board,55564441-525f-4426-9f61-72642e6b6963,rev?*
G04 #@! TF.SameCoordinates,Original*
G04 #@! TF.FileFunction,Paste,Top*
G04 #@! TF.FilePolarity,Positive*
%FSLAX46Y46*%
G04 Gerber Fmt 4.6, Leading zero omitted, Abs format (unit mm)*
G04 Created by KiCad (PCBNEW 5.1.6-c6e7f7d~87~ubuntu20.04.1) date 2020-09-01 15:12:56*
%MOMM*%
%LPD*%
G01*
G04 APERTURE LIST*
%ADD10R,3.400000X2.400000*%
%ADD11R,0.950000X0.875000*%
%ADD12R,0.875000X0.950000*%
%ADD13R,1.550000X0.600000*%
%ADD14R,2.100000X1.200000*%
%ADD15R,2.000000X1.700000*%
%ADD16R,0.500000X2.000000*%
%ADD17R,4.000000X1.200000*%
%ADD18R,3.400000X1.800000*%
%ADD19R,1.200000X4.000000*%
%ADD20R,1.800000X3.400000*%
%ADD21R,0.550000X1.000000*%
%ADD22R,1.000000X0.550000*%
%ADD23R,1.500000X2.000000*%
%ADD24R,3.800000X2.000000*%
G04 APERTURE END LIST*
D10*
X118000000Y-109900000D03*
X118000000Y-103700000D03*
G36*
G01*
X114975000Y-120393750D02*
X114975000Y-120906250D01*
G75*
G02*
X114756250Y-121125000I-218750J0D01*
G01*
X114318750Y-121125000D01*
G75*
G02*
X114100000Y-120906250I0J218750D01*
G01*
X114100000Y-120393750D01*
G75*
G02*
X114318750Y-120175000I218750J0D01*
G01*
X114756250Y-120175000D01*
G75*
G02*
X114975000Y-120393750I0J-218750D01*
G01*
G37*
G36*
G01*
X113400000Y-120393750D02*
X113400000Y-120906250D01*
G75*
G02*
X113181250Y-121125000I-218750J0D01*
G01*
X112743750Y-121125000D01*
G75*
G02*
X112525000Y-120906250I0J218750D01*
G01*
X112525000Y-120393750D01*
G75*
G02*
X112743750Y-120175000I218750J0D01*
G01*
X113181250Y-120175000D01*
G75*
G02*
X113400000Y-120393750I0J-218750D01*
G01*
G37*
G36*
G01*
X108565000Y-103336250D02*
X108565000Y-102823750D01*
G75*
G02*
X108783750Y-102605000I218750J0D01*
G01*
X109221250Y-102605000D01*
G75*
G02*
X109440000Y-102823750I0J-218750D01*
G01*
X109440000Y-103336250D01*
G75*
G02*
X109221250Y-103555000I-218750J0D01*
G01*
X108783750Y-103555000D01*
G75*
G02*
X108565000Y-103336250I0J218750D01*
G01*
G37*
G36*
G01*
X110140000Y-103336250D02*
X110140000Y-102823750D01*
G75*
G02*
X110358750Y-102605000I218750J0D01*
G01*
X110796250Y-102605000D01*
G75*
G02*
X111015000Y-102823750I0J-218750D01*
G01*
X111015000Y-103336250D01*
G75*
G02*
X110796250Y-103555000I-218750J0D01*
G01*
X110358750Y-103555000D01*
G75*
G02*
X110140000Y-103336250I0J218750D01*
G01*
G37*
G36*
G01*
X102575000Y-110656250D02*
X102575000Y-110143750D01*
G75*
G02*
X102793750Y-109925000I218750J0D01*
G01*
X103231250Y-109925000D01*
G75*
G02*
X103450000Y-110143750I0J-218750D01*
G01*
X103450000Y-110656250D01*
G75*
G02*
X103231250Y-110875000I-218750J0D01*
G01*
X102793750Y-110875000D01*
G75*
G02*
X102575000Y-110656250I0J218750D01*
G01*
G37*
G36*
G01*
X104150000Y-110656250D02*
X104150000Y-110143750D01*
G75*
G02*
X104368750Y-109925000I218750J0D01*
G01*
X104806250Y-109925000D01*
G75*
G02*
X105025000Y-110143750I0J-218750D01*
G01*
X105025000Y-110656250D01*
G75*
G02*
X104806250Y-110875000I-218750J0D01*
G01*
X104368750Y-110875000D01*
G75*
G02*
X104150000Y-110656250I0J218750D01*
G01*
G37*
G36*
G01*
X105575000Y-112156250D02*
X105575000Y-111643750D01*
G75*
G02*
X105793750Y-111425000I218750J0D01*
G01*
X106231250Y-111425000D01*
G75*
G02*
X106450000Y-111643750I0J-218750D01*
G01*
X106450000Y-112156250D01*
G75*
G02*
X106231250Y-112375000I-218750J0D01*
G01*
X105793750Y-112375000D01*
G75*
G02*
X105575000Y-112156250I0J218750D01*
G01*
G37*
G36*
G01*
X107150000Y-112156250D02*
X107150000Y-111643750D01*
G75*
G02*
X107368750Y-111425000I218750J0D01*
G01*
X107806250Y-111425000D01*
G75*
G02*
X108025000Y-111643750I0J-218750D01*
G01*
X108025000Y-112156250D01*
G75*
G02*
X107806250Y-112375000I-218750J0D01*
G01*
X107368750Y-112375000D01*
G75*
G02*
X107150000Y-112156250I0J218750D01*
G01*
G37*
G36*
G01*
X112246250Y-108145000D02*
X111733750Y-108145000D01*
G75*
G02*
X111515000Y-107926250I0J218750D01*
G01*
X111515000Y-107488750D01*
G75*
G02*
X111733750Y-107270000I218750J0D01*
G01*
X112246250Y-107270000D01*
G75*
G02*
X112465000Y-107488750I0J-218750D01*
G01*
X112465000Y-107926250D01*
G75*
G02*
X112246250Y-108145000I-218750J0D01*
G01*
G37*
G36*
G01*
X112246250Y-106570000D02*
X111733750Y-106570000D01*
G75*
G02*
X111515000Y-106351250I0J218750D01*
G01*
X111515000Y-105913750D01*
G75*
G02*
X111733750Y-105695000I218750J0D01*
G01*
X112246250Y-105695000D01*
G75*
G02*
X112465000Y-105913750I0J-218750D01*
G01*
X112465000Y-106351250D01*
G75*
G02*
X112246250Y-106570000I-218750J0D01*
G01*
G37*
D11*
X113500000Y-107687500D03*
X113500000Y-106112500D03*
X113500000Y-110687500D03*
X113500000Y-109112500D03*
D12*
X107587500Y-110400000D03*
X106012500Y-110400000D03*
G36*
G01*
X123150000Y-106450000D02*
X124050000Y-106450000D01*
G75*
G02*
X124500000Y-106900000I0J-450000D01*
G01*
X124500000Y-108500000D01*
G75*
G02*
X124050000Y-108950000I-450000J0D01*
G01*
X123150000Y-108950000D01*
G75*
G02*
X122700000Y-108500000I0J450000D01*
G01*
X122700000Y-106900000D01*
G75*
G02*
X123150000Y-106450000I450000J0D01*
G01*
G37*
G36*
G01*
X123150000Y-102450000D02*
X124050000Y-102450000D01*
G75*
G02*
X124500000Y-102900000I0J-450000D01*
G01*
X124500000Y-104500000D01*
G75*
G02*
X124050000Y-104950000I-450000J0D01*
G01*
X123150000Y-104950000D01*
G75*
G02*
X122700000Y-104500000I0J450000D01*
G01*
X122700000Y-102900000D01*
G75*
G02*
X123150000Y-102450000I450000J0D01*
G01*
G37*
G36*
G01*
X112000000Y-116950000D02*
X112000000Y-118350000D01*
G75*
G02*
X111600000Y-118750000I-400000J0D01*
G01*
X110800000Y-118750000D01*
G75*
G02*
X110400000Y-118350000I0J400000D01*
G01*
X110400000Y-116950000D01*
G75*
G02*
X110800000Y-116550000I400000J0D01*
G01*
X111600000Y-116550000D01*
G75*
G02*
X112000000Y-116950000I0J-400000D01*
G01*
G37*
G36*
G01*
X118000000Y-116950000D02*
X118000000Y-118350000D01*
G75*
G02*
X117600000Y-118750000I-400000J0D01*
G01*
X116800000Y-118750000D01*
G75*
G02*
X116400000Y-118350000I0J400000D01*
G01*
X116400000Y-116950000D01*
G75*
G02*
X116800000Y-116550000I400000J0D01*
G01*
X117600000Y-116550000D01*
G75*
G02*
X118000000Y-116950000I0J-400000D01*
G01*
G37*
G36*
G01*
X99300000Y-109200000D02*
X100700000Y-109200000D01*
G75*
G02*
X101100000Y-109600000I0J-400000D01*
G01*
X101100000Y-110400000D01*
G75*
G02*
X100700000Y-110800000I-400000J0D01*
G01*
X99300000Y-110800000D01*
G75*
G02*
X98900000Y-110400000I0J400000D01*
G01*
X98900000Y-109600000D01*
G75*
G02*
X99300000Y-109200000I400000J0D01*
G01*
G37*
G36*
G01*
X99300000Y-103200000D02*
X100700000Y-103200000D01*
G75*
G02*
X101100000Y-103600000I0J-400000D01*
G01*
X101100000Y-104400000D01*
G75*
G02*
X100700000Y-104800000I-400000J0D01*
G01*
X99300000Y-104800000D01*
G75*
G02*
X98900000Y-104400000I0J400000D01*
G01*
X98900000Y-103600000D01*
G75*
G02*
X99300000Y-103200000I400000J0D01*
G01*
G37*
G36*
G01*
X112000000Y-112950000D02*
X112000000Y-114350000D01*
G75*
G02*
X111600000Y-114750000I-400000J0D01*
G01*
X110800000Y-114750000D01*
G75*
G02*
X110400000Y-114350000I0J400000D01*
G01*
X110400000Y-112950000D01*
G75*
G02*
X110800000Y-112550000I400000J0D01*
G01*
X111600000Y-112550000D01*
G75*
G02*
X112000000Y-112950000I0J-400000D01*
G01*
G37*
G36*
G01*
X118000000Y-112950000D02*
X118000000Y-114350000D01*
G75*
G02*
X117600000Y-114750000I-400000J0D01*
G01*
X116800000Y-114750000D01*
G75*
G02*
X116400000Y-114350000I0J400000D01*
G01*
X116400000Y-112950000D01*
G75*
G02*
X116800000Y-112550000I400000J0D01*
G01*
X117600000Y-112550000D01*
G75*
G02*
X118000000Y-112950000I0J-400000D01*
G01*
G37*
D13*
X109780000Y-104865000D03*
X109780000Y-106135000D03*
X109780000Y-107405000D03*
X109780000Y-108675000D03*
X104380000Y-108675000D03*
X104380000Y-107405000D03*
X104380000Y-106135000D03*
X104380000Y-104865000D03*
D11*
X138900000Y-114987500D03*
X138900000Y-113412500D03*
X137400000Y-113412500D03*
X137400000Y-114987500D03*
D12*
X142212500Y-112500000D03*
X143787500Y-112500000D03*
D14*
X141600000Y-103300000D03*
X141600000Y-107800000D03*
X149600000Y-103300000D03*
X149600000Y-107800000D03*
G36*
G01*
X143350000Y-111256250D02*
X143350000Y-110743750D01*
G75*
G02*
X143568750Y-110525000I218750J0D01*
G01*
X144006250Y-110525000D01*
G75*
G02*
X144225000Y-110743750I0J-218750D01*
G01*
X144225000Y-111256250D01*
G75*
G02*
X144006250Y-111475000I-218750J0D01*
G01*
X143568750Y-111475000D01*
G75*
G02*
X143350000Y-111256250I0J218750D01*
G01*
G37*
G36*
G01*
X141775000Y-111256250D02*
X141775000Y-110743750D01*
G75*
G02*
X141993750Y-110525000I218750J0D01*
G01*
X142431250Y-110525000D01*
G75*
G02*
X142650000Y-110743750I0J-218750D01*
G01*
X142650000Y-111256250D01*
G75*
G02*
X142431250Y-111475000I-218750J0D01*
G01*
X141993750Y-111475000D01*
G75*
G02*
X141775000Y-111256250I0J218750D01*
G01*
G37*
G36*
G01*
X125485000Y-125096250D02*
X125485000Y-124583750D01*
G75*
G02*
X125703750Y-124365000I218750J0D01*
G01*
X126141250Y-124365000D01*
G75*
G02*
X126360000Y-124583750I0J-218750D01*
G01*
X126360000Y-125096250D01*
G75*
G02*
X126141250Y-125315000I-218750J0D01*
G01*
X125703750Y-125315000D01*
G75*
G02*
X125485000Y-125096250I0J218750D01*
G01*
G37*
G36*
G01*
X127060000Y-125096250D02*
X127060000Y-124583750D01*
G75*
G02*
X127278750Y-124365000I218750J0D01*
G01*
X127716250Y-124365000D01*
G75*
G02*
X127935000Y-124583750I0J-218750D01*
G01*
X127935000Y-125096250D01*
G75*
G02*
X127716250Y-125315000I-218750J0D01*
G01*
X127278750Y-125315000D01*
G75*
G02*
X127060000Y-125096250I0J218750D01*
G01*
G37*
G36*
G01*
X137775000Y-131043750D02*
X137775000Y-131556250D01*
G75*
G02*
X137556250Y-131775000I-218750J0D01*
G01*
X137118750Y-131775000D01*
G75*
G02*
X136900000Y-131556250I0J218750D01*
G01*
X136900000Y-131043750D01*
G75*
G02*
X137118750Y-130825000I218750J0D01*
G01*
X137556250Y-130825000D01*
G75*
G02*
X137775000Y-131043750I0J-218750D01*
G01*
G37*
G36*
G01*
X136200000Y-131043750D02*
X136200000Y-131556250D01*
G75*
G02*
X135981250Y-131775000I-218750J0D01*
G01*
X135543750Y-131775000D01*
G75*
G02*
X135325000Y-131556250I0J218750D01*
G01*
X135325000Y-131043750D01*
G75*
G02*
X135543750Y-130825000I218750J0D01*
G01*
X135981250Y-130825000D01*
G75*
G02*
X136200000Y-131043750I0J-218750D01*
G01*
G37*
G36*
G01*
X134775000Y-131043750D02*
X134775000Y-131556250D01*
G75*
G02*
X134556250Y-131775000I-218750J0D01*
G01*
X134118750Y-131775000D01*
G75*
G02*
X133900000Y-131556250I0J218750D01*
G01*
X133900000Y-131043750D01*
G75*
G02*
X134118750Y-130825000I218750J0D01*
G01*
X134556250Y-130825000D01*
G75*
G02*
X134775000Y-131043750I0J-218750D01*
G01*
G37*
G36*
G01*
X133200000Y-131043750D02*
X133200000Y-131556250D01*
G75*
G02*
X132981250Y-131775000I-218750J0D01*
G01*
X132543750Y-131775000D01*
G75*
G02*
X132325000Y-131556250I0J218750D01*
G01*
X132325000Y-131043750D01*
G75*
G02*
X132543750Y-130825000I218750J0D01*
G01*
X132981250Y-130825000D01*
G75*
G02*
X133200000Y-131043750I0J-218750D01*
G01*
G37*
G36*
G01*
X132625000Y-124743750D02*
X132625000Y-125256250D01*
G75*
G02*
X132406250Y-125475000I-218750J0D01*
G01*
X131968750Y-125475000D01*
G75*
G02*
X131750000Y-125256250I0J218750D01*
G01*
X131750000Y-124743750D01*
G75*
G02*
X131968750Y-124525000I218750J0D01*
G01*
X132406250Y-124525000D01*
G75*
G02*
X132625000Y-124743750I0J-218750D01*
G01*
G37*
G36*
G01*
X131050000Y-124743750D02*
X131050000Y-125256250D01*
G75*
G02*
X130831250Y-125475000I-218750J0D01*
G01*
X130393750Y-125475000D01*
G75*
G02*
X130175000Y-125256250I0J218750D01*
G01*
X130175000Y-124743750D01*
G75*
G02*
X130393750Y-124525000I218750J0D01*
G01*
X130831250Y-124525000D01*
G75*
G02*
X131050000Y-124743750I0J-218750D01*
G01*
G37*
G36*
G01*
X141243750Y-113525000D02*
X141756250Y-113525000D01*
G75*
G02*
X141975000Y-113743750I0J-218750D01*
G01*
X141975000Y-114181250D01*
G75*
G02*
X141756250Y-114400000I-218750J0D01*
G01*
X141243750Y-114400000D01*
G75*
G02*
X141025000Y-114181250I0J218750D01*
G01*
X141025000Y-113743750D01*
G75*
G02*
X141243750Y-113525000I218750J0D01*
G01*
G37*
G36*
G01*
X141243750Y-115100000D02*
X141756250Y-115100000D01*
G75*
G02*
X141975000Y-115318750I0J-218750D01*
G01*
X141975000Y-115756250D01*
G75*
G02*
X141756250Y-115975000I-218750J0D01*
G01*
X141243750Y-115975000D01*
G75*
G02*
X141025000Y-115756250I0J218750D01*
G01*
X141025000Y-115318750D01*
G75*
G02*
X141243750Y-115100000I218750J0D01*
G01*
G37*
D12*
X105842500Y-121430000D03*
X104267500Y-121430000D03*
X105842500Y-132730000D03*
X104267500Y-132730000D03*
D11*
X112520000Y-133152500D03*
X112520000Y-134727500D03*
X123320000Y-133152500D03*
X123320000Y-134727500D03*
D12*
X145161730Y-115328370D03*
X146736730Y-115328370D03*
X145161730Y-126128370D03*
X146736730Y-126128370D03*
D11*
X144916184Y-133154740D03*
X144916184Y-134729740D03*
X134116184Y-133154740D03*
X134116184Y-134729740D03*
D15*
X131100000Y-105550000D03*
X131100000Y-111000000D03*
X140000000Y-105550000D03*
X140000000Y-111000000D03*
D16*
X133950000Y-111100000D03*
X134750000Y-111100000D03*
X135550000Y-111100000D03*
X136350000Y-111100000D03*
X137150000Y-111100000D03*
G36*
G01*
X133200000Y-123950000D02*
X131950000Y-123950000D01*
G75*
G02*
X131825000Y-123825000I0J125000D01*
G01*
X131825000Y-123575000D01*
G75*
G02*
X131950000Y-123450000I125000J0D01*
G01*
X133200000Y-123450000D01*
G75*
G02*
X133325000Y-123575000I0J-125000D01*
G01*
X133325000Y-123825000D01*
G75*
G02*
X133200000Y-123950000I-125000J0D01*
G01*
G37*
G36*
G01*
X133200000Y-123150000D02*
X131950000Y-123150000D01*
G75*
G02*
X131825000Y-123025000I0J125000D01*
G01*
X131825000Y-122775000D01*
G75*
G02*
X131950000Y-122650000I125000J0D01*
G01*
X133200000Y-122650000D01*
G75*
G02*
X133325000Y-122775000I0J-125000D01*
G01*
X133325000Y-123025000D01*
G75*
G02*
X133200000Y-123150000I-125000J0D01*
G01*
G37*
G36*
G01*
X133200000Y-122350000D02*
X131950000Y-122350000D01*
G75*
G02*
X131825000Y-122225000I0J125000D01*
G01*
X131825000Y-121975000D01*
G75*
G02*
X131950000Y-121850000I125000J0D01*
G01*
X133200000Y-121850000D01*
G75*
G02*
X133325000Y-121975000I0J-125000D01*
G01*
X133325000Y-122225000D01*
G75*
G02*
X133200000Y-122350000I-125000J0D01*
G01*
G37*
G36*
G01*
X133200000Y-121550000D02*
X131950000Y-121550000D01*
G75*
G02*
X131825000Y-121425000I0J125000D01*
G01*
X131825000Y-121175000D01*
G75*
G02*
X131950000Y-121050000I125000J0D01*
G01*
X133200000Y-121050000D01*
G75*
G02*
X133325000Y-121175000I0J-125000D01*
G01*
X133325000Y-121425000D01*
G75*
G02*
X133200000Y-121550000I-125000J0D01*
G01*
G37*
G36*
G01*
X133200000Y-120750000D02*
X131950000Y-120750000D01*
G75*
G02*
X131825000Y-120625000I0J125000D01*
G01*
X131825000Y-120375000D01*
G75*
G02*
X131950000Y-120250000I125000J0D01*
G01*
X133200000Y-120250000D01*
G75*
G02*
X133325000Y-120375000I0J-125000D01*
G01*
X133325000Y-120625000D01*
G75*
G02*
X133200000Y-120750000I-125000J0D01*
G01*
G37*
G36*
G01*
X133200000Y-119950000D02*
X131950000Y-119950000D01*
G75*
G02*
X131825000Y-119825000I0J125000D01*
G01*
X131825000Y-119575000D01*
G75*
G02*
X131950000Y-119450000I125000J0D01*
G01*
X133200000Y-119450000D01*
G75*
G02*
X133325000Y-119575000I0J-125000D01*
G01*
X133325000Y-119825000D01*
G75*
G02*
X133200000Y-119950000I-125000J0D01*
G01*
G37*
G36*
G01*
X133200000Y-119150000D02*
X131950000Y-119150000D01*
G75*
G02*
X131825000Y-119025000I0J125000D01*
G01*
X131825000Y-118775000D01*
G75*
G02*
X131950000Y-118650000I125000J0D01*
G01*
X133200000Y-118650000D01*
G75*
G02*
X133325000Y-118775000I0J-125000D01*
G01*
X133325000Y-119025000D01*
G75*
G02*
X133200000Y-119150000I-125000J0D01*
G01*
G37*
G36*
G01*
X133200000Y-118350000D02*
X131950000Y-118350000D01*
G75*
G02*
X131825000Y-118225000I0J125000D01*
G01*
X131825000Y-117975000D01*
G75*
G02*
X131950000Y-117850000I125000J0D01*
G01*
X133200000Y-117850000D01*
G75*
G02*
X133325000Y-117975000I0J-125000D01*
G01*
X133325000Y-118225000D01*
G75*
G02*
X133200000Y-118350000I-125000J0D01*
G01*
G37*
G36*
G01*
X134075000Y-117475000D02*
X133825000Y-117475000D01*
G75*
G02*
X133700000Y-117350000I0J125000D01*
G01*
X133700000Y-116100000D01*
G75*
G02*
X133825000Y-115975000I125000J0D01*
G01*
X134075000Y-115975000D01*
G75*
G02*
X134200000Y-116100000I0J-125000D01*
G01*
X134200000Y-117350000D01*
G75*
G02*
X134075000Y-117475000I-125000J0D01*
G01*
G37*
G36*
G01*
X134875000Y-117475000D02*
X134625000Y-117475000D01*
G75*
G02*
X134500000Y-117350000I0J125000D01*
G01*
X134500000Y-116100000D01*
G75*
G02*
X134625000Y-115975000I125000J0D01*
G01*
X134875000Y-115975000D01*
G75*
G02*
X135000000Y-116100000I0J-125000D01*
G01*
X135000000Y-117350000D01*
G75*
G02*
X134875000Y-117475000I-125000J0D01*
G01*
G37*
G36*
G01*
X135675000Y-117475000D02*
X135425000Y-117475000D01*
G75*
G02*
X135300000Y-117350000I0J125000D01*
G01*
X135300000Y-116100000D01*
G75*
G02*
X135425000Y-115975000I125000J0D01*
G01*
X135675000Y-115975000D01*
G75*
G02*
X135800000Y-116100000I0J-125000D01*
G01*
X135800000Y-117350000D01*
G75*
G02*
X135675000Y-117475000I-125000J0D01*
G01*
G37*
G36*
G01*
X136475000Y-117475000D02*
X136225000Y-117475000D01*
G75*
G02*
X136100000Y-117350000I0J125000D01*
G01*
X136100000Y-116100000D01*
G75*
G02*
X136225000Y-115975000I125000J0D01*
G01*
X136475000Y-115975000D01*
G75*
G02*
X136600000Y-116100000I0J-125000D01*
G01*
X136600000Y-117350000D01*
G75*
G02*
X136475000Y-117475000I-125000J0D01*
G01*
G37*
G36*
G01*
X137275000Y-117475000D02*
X137025000Y-117475000D01*
G75*
G02*
X136900000Y-117350000I0J125000D01*
G01*
X136900000Y-116100000D01*
G75*
G02*
X137025000Y-115975000I125000J0D01*
G01*
X137275000Y-115975000D01*
G75*
G02*
X137400000Y-116100000I0J-125000D01*
G01*
X137400000Y-117350000D01*
G75*
G02*
X137275000Y-117475000I-125000J0D01*
G01*
G37*
G36*
G01*
X138075000Y-117475000D02*
X137825000Y-117475000D01*
G75*
G02*
X137700000Y-117350000I0J125000D01*
G01*
X137700000Y-116100000D01*
G75*
G02*
X137825000Y-115975000I125000J0D01*
G01*
X138075000Y-115975000D01*
G75*
G02*
X138200000Y-116100000I0J-125000D01*
G01*
X138200000Y-117350000D01*
G75*
G02*
X138075000Y-117475000I-125000J0D01*
G01*
G37*
G36*
G01*
X138875000Y-117475000D02*
X138625000Y-117475000D01*
G75*
G02*
X138500000Y-117350000I0J125000D01*
G01*
X138500000Y-116100000D01*
G75*
G02*
X138625000Y-115975000I125000J0D01*
G01*
X138875000Y-115975000D01*
G75*
G02*
X139000000Y-116100000I0J-125000D01*
G01*
X139000000Y-117350000D01*
G75*
G02*
X138875000Y-117475000I-125000J0D01*
G01*
G37*
G36*
G01*
X139675000Y-117475000D02*
X139425000Y-117475000D01*
G75*
G02*
X139300000Y-117350000I0J125000D01*
G01*
X139300000Y-116100000D01*
G75*
G02*
X139425000Y-115975000I125000J0D01*
G01*
X139675000Y-115975000D01*
G75*
G02*
X139800000Y-116100000I0J-125000D01*
G01*
X139800000Y-117350000D01*
G75*
G02*
X139675000Y-117475000I-125000J0D01*
G01*
G37*
G36*
G01*
X141550000Y-118350000D02*
X140300000Y-118350000D01*
G75*
G02*
X140175000Y-118225000I0J125000D01*
G01*
X140175000Y-117975000D01*
G75*
G02*
X140300000Y-117850000I125000J0D01*
G01*
X141550000Y-117850000D01*
G75*
G02*
X141675000Y-117975000I0J-125000D01*
G01*
X141675000Y-118225000D01*
G75*
G02*
X141550000Y-118350000I-125000J0D01*
G01*
G37*
G36*
G01*
X141550000Y-119150000D02*
X140300000Y-119150000D01*
G75*
G02*
X140175000Y-119025000I0J125000D01*
G01*
X140175000Y-118775000D01*
G75*
G02*
X140300000Y-118650000I125000J0D01*
G01*
X141550000Y-118650000D01*
G75*
G02*
X141675000Y-118775000I0J-125000D01*
G01*
X141675000Y-119025000D01*
G75*
G02*
X141550000Y-119150000I-125000J0D01*
G01*
G37*
G36*
G01*
X141550000Y-119950000D02*
X140300000Y-119950000D01*
G75*
G02*
X140175000Y-119825000I0J125000D01*
G01*
X140175000Y-119575000D01*
G75*
G02*
X140300000Y-119450000I125000J0D01*
G01*
X141550000Y-119450000D01*
G75*
G02*
X141675000Y-119575000I0J-125000D01*
G01*
X141675000Y-119825000D01*
G75*
G02*
X141550000Y-119950000I-125000J0D01*
G01*
G37*
G36*
G01*
X141550000Y-120750000D02*
X140300000Y-120750000D01*
G75*
G02*
X140175000Y-120625000I0J125000D01*
G01*
X140175000Y-120375000D01*
G75*
G02*
X140300000Y-120250000I125000J0D01*
G01*
X141550000Y-120250000D01*
G75*
G02*
X141675000Y-120375000I0J-125000D01*
G01*
X141675000Y-120625000D01*
G75*
G02*
X141550000Y-120750000I-125000J0D01*
G01*
G37*
G36*
G01*
X141550000Y-121550000D02*
X140300000Y-121550000D01*
G75*
G02*
X140175000Y-121425000I0J125000D01*
G01*
X140175000Y-121175000D01*
G75*
G02*
X140300000Y-121050000I125000J0D01*
G01*
X141550000Y-121050000D01*
G75*
G02*
X141675000Y-121175000I0J-125000D01*
G01*
X141675000Y-121425000D01*
G75*
G02*
X141550000Y-121550000I-125000J0D01*
G01*
G37*
G36*
G01*
X141550000Y-122350000D02*
X140300000Y-122350000D01*
G75*
G02*
X140175000Y-122225000I0J125000D01*
G01*
X140175000Y-121975000D01*
G75*
G02*
X140300000Y-121850000I125000J0D01*
G01*
X141550000Y-121850000D01*
G75*
G02*
X141675000Y-121975000I0J-125000D01*
G01*
X141675000Y-122225000D01*
G75*
G02*
X141550000Y-122350000I-125000J0D01*
G01*
G37*
G36*
G01*
X141550000Y-123150000D02*
X140300000Y-123150000D01*
G75*
G02*
X140175000Y-123025000I0J125000D01*
G01*
X140175000Y-122775000D01*
G75*
G02*
X140300000Y-122650000I125000J0D01*
G01*
X141550000Y-122650000D01*
G75*
G02*
X141675000Y-122775000I0J-125000D01*
G01*
X141675000Y-123025000D01*
G75*
G02*
X141550000Y-123150000I-125000J0D01*
G01*
G37*
G36*
G01*
X141550000Y-123950000D02*
X140300000Y-123950000D01*
G75*
G02*
X140175000Y-123825000I0J125000D01*
G01*
X140175000Y-123575000D01*
G75*
G02*
X140300000Y-123450000I125000J0D01*
G01*
X141550000Y-123450000D01*
G75*
G02*
X141675000Y-123575000I0J-125000D01*
G01*
X141675000Y-123825000D01*
G75*
G02*
X141550000Y-123950000I-125000J0D01*
G01*
G37*
G36*
G01*
X139675000Y-125825000D02*
X139425000Y-125825000D01*
G75*
G02*
X139300000Y-125700000I0J125000D01*
G01*
X139300000Y-124450000D01*
G75*
G02*
X139425000Y-124325000I125000J0D01*
G01*
X139675000Y-124325000D01*
G75*
G02*
X139800000Y-124450000I0J-125000D01*
G01*
X139800000Y-125700000D01*
G75*
G02*
X139675000Y-125825000I-125000J0D01*
G01*
G37*
G36*
G01*
X138875000Y-125825000D02*
X138625000Y-125825000D01*
G75*
G02*
X138500000Y-125700000I0J125000D01*
G01*
X138500000Y-124450000D01*
G75*
G02*
X138625000Y-124325000I125000J0D01*
G01*
X138875000Y-124325000D01*
G75*
G02*
X139000000Y-124450000I0J-125000D01*
G01*
X139000000Y-125700000D01*
G75*
G02*
X138875000Y-125825000I-125000J0D01*
G01*
G37*
G36*
G01*
X138075000Y-125825000D02*
X137825000Y-125825000D01*
G75*
G02*
X137700000Y-125700000I0J125000D01*
G01*
X137700000Y-124450000D01*
G75*
G02*
X137825000Y-124325000I125000J0D01*
G01*
X138075000Y-124325000D01*
G75*
G02*
X138200000Y-124450000I0J-125000D01*
G01*
X138200000Y-125700000D01*
G75*
G02*
X138075000Y-125825000I-125000J0D01*
G01*
G37*
G36*
G01*
X137275000Y-125825000D02*
X137025000Y-125825000D01*
G75*
G02*
X136900000Y-125700000I0J125000D01*
G01*
X136900000Y-124450000D01*
G75*
G02*
X137025000Y-124325000I125000J0D01*
G01*
X137275000Y-124325000D01*
G75*
G02*
X137400000Y-124450000I0J-125000D01*
G01*
X137400000Y-125700000D01*
G75*
G02*
X137275000Y-125825000I-125000J0D01*
G01*
G37*
G36*
G01*
X136475000Y-125825000D02*
X136225000Y-125825000D01*
G75*
G02*
X136100000Y-125700000I0J125000D01*
G01*
X136100000Y-124450000D01*
G75*
G02*
X136225000Y-124325000I125000J0D01*
G01*
X136475000Y-124325000D01*
G75*
G02*
X136600000Y-124450000I0J-125000D01*
G01*
X136600000Y-125700000D01*
G75*
G02*
X136475000Y-125825000I-125000J0D01*
G01*
G37*
G36*
G01*
X135675000Y-125825000D02*
X135425000Y-125825000D01*
G75*
G02*
X135300000Y-125700000I0J125000D01*
G01*
X135300000Y-124450000D01*
G75*
G02*
X135425000Y-124325000I125000J0D01*
G01*
X135675000Y-124325000D01*
G75*
G02*
X135800000Y-124450000I0J-125000D01*
G01*
X135800000Y-125700000D01*
G75*
G02*
X135675000Y-125825000I-125000J0D01*
G01*
G37*
G36*
G01*
X134875000Y-125825000D02*
X134625000Y-125825000D01*
G75*
G02*
X134500000Y-125700000I0J125000D01*
G01*
X134500000Y-124450000D01*
G75*
G02*
X134625000Y-124325000I125000J0D01*
G01*
X134875000Y-124325000D01*
G75*
G02*
X135000000Y-124450000I0J-125000D01*
G01*
X135000000Y-125700000D01*
G75*
G02*
X134875000Y-125825000I-125000J0D01*
G01*
G37*
G36*
G01*
X134075000Y-125825000D02*
X133825000Y-125825000D01*
G75*
G02*
X133700000Y-125700000I0J125000D01*
G01*
X133700000Y-124450000D01*
G75*
G02*
X133825000Y-124325000I125000J0D01*
G01*
X134075000Y-124325000D01*
G75*
G02*
X134200000Y-124450000I0J-125000D01*
G01*
X134200000Y-125700000D01*
G75*
G02*
X134075000Y-125825000I-125000J0D01*
G01*
G37*
D17*
X150939230Y-119628370D03*
X150939230Y-117628370D03*
D18*
X156639230Y-122328370D03*
X156639230Y-114928370D03*
D17*
X150939230Y-130428370D03*
X150939230Y-128428370D03*
D18*
X156639230Y-133128370D03*
X156639230Y-125728370D03*
D19*
X140616184Y-138932240D03*
X142616184Y-138932240D03*
D20*
X137916184Y-144632240D03*
X145316184Y-144632240D03*
D19*
X129816184Y-138932240D03*
X131816184Y-138932240D03*
D20*
X127116184Y-144632240D03*
X134516184Y-144632240D03*
D19*
X119020000Y-138930000D03*
X121020000Y-138930000D03*
D20*
X116320000Y-144630000D03*
X123720000Y-144630000D03*
D19*
X108220000Y-138930000D03*
X110220000Y-138930000D03*
D20*
X105520000Y-144630000D03*
X112920000Y-144630000D03*
D17*
X100065000Y-128430000D03*
X100065000Y-130430000D03*
D18*
X94365000Y-125730000D03*
X94365000Y-133130000D03*
D21*
X144999230Y-117028370D03*
X145949230Y-117028370D03*
X146899230Y-117028370D03*
X146899230Y-119628370D03*
X145949230Y-119628370D03*
X144999230Y-119628370D03*
X144999230Y-127828370D03*
X145949230Y-127828370D03*
X146899230Y-127828370D03*
X146899230Y-130428370D03*
X145949230Y-130428370D03*
X144999230Y-130428370D03*
D22*
X143216184Y-132992240D03*
X143216184Y-133942240D03*
X143216184Y-134892240D03*
X140616184Y-134892240D03*
X140616184Y-133942240D03*
X140616184Y-132992240D03*
X132416184Y-132992240D03*
X132416184Y-133942240D03*
X132416184Y-134892240D03*
X129816184Y-134892240D03*
X129816184Y-133942240D03*
X129816184Y-132992240D03*
X121620000Y-132990000D03*
X121620000Y-133940000D03*
X121620000Y-134890000D03*
X119020000Y-134890000D03*
X119020000Y-133940000D03*
X119020000Y-132990000D03*
X110820000Y-132990000D03*
X110820000Y-133940000D03*
X110820000Y-134890000D03*
X108220000Y-134890000D03*
X108220000Y-133940000D03*
X108220000Y-132990000D03*
D21*
X106005000Y-131030000D03*
X105055000Y-131030000D03*
X104105000Y-131030000D03*
X104105000Y-128430000D03*
X105055000Y-128430000D03*
X106005000Y-128430000D03*
D17*
X100065000Y-117130000D03*
X100065000Y-119130000D03*
D18*
X94365000Y-114430000D03*
X94365000Y-121830000D03*
G36*
G01*
X120020000Y-125715000D02*
X120020000Y-124465000D01*
G75*
G02*
X120270000Y-124215000I250000J0D01*
G01*
X121195000Y-124215000D01*
G75*
G02*
X121445000Y-124465000I0J-250000D01*
G01*
X121445000Y-125715000D01*
G75*
G02*
X121195000Y-125965000I-250000J0D01*
G01*
X120270000Y-125965000D01*
G75*
G02*
X120020000Y-125715000I0J250000D01*
G01*
G37*
G36*
G01*
X122995000Y-125715000D02*
X122995000Y-124465000D01*
G75*
G02*
X123245000Y-124215000I250000J0D01*
G01*
X124170000Y-124215000D01*
G75*
G02*
X124420000Y-124465000I0J-250000D01*
G01*
X124420000Y-125715000D01*
G75*
G02*
X124170000Y-125965000I-250000J0D01*
G01*
X123245000Y-125965000D01*
G75*
G02*
X122995000Y-125715000I0J250000D01*
G01*
G37*
G36*
G01*
X125210000Y-123365000D02*
X125210000Y-122115000D01*
G75*
G02*
X125460000Y-121865000I250000J0D01*
G01*
X126385000Y-121865000D01*
G75*
G02*
X126635000Y-122115000I0J-250000D01*
G01*
X126635000Y-123365000D01*
G75*
G02*
X126385000Y-123615000I-250000J0D01*
G01*
X125460000Y-123615000D01*
G75*
G02*
X125210000Y-123365000I0J250000D01*
G01*
G37*
G36*
G01*
X128185000Y-123365000D02*
X128185000Y-122115000D01*
G75*
G02*
X128435000Y-121865000I250000J0D01*
G01*
X129360000Y-121865000D01*
G75*
G02*
X129610000Y-122115000I0J-250000D01*
G01*
X129610000Y-123365000D01*
G75*
G02*
X129360000Y-123615000I-250000J0D01*
G01*
X128435000Y-123615000D01*
G75*
G02*
X128185000Y-123365000I0J250000D01*
G01*
G37*
D23*
X120740000Y-120190000D03*
X125340000Y-120190000D03*
X123040000Y-120190000D03*
D24*
X123040000Y-113890000D03*
D21*
X106005000Y-119730000D03*
X105055000Y-119730000D03*
X104105000Y-119730000D03*
X104105000Y-117130000D03*
X105055000Y-117130000D03*
X106005000Y-117130000D03*
G36*
G01*
X133250000Y-127730000D02*
X133250000Y-127130000D01*
G75*
G02*
X133550000Y-126830000I300000J0D01*
G01*
X134350000Y-126830000D01*
G75*
G02*
X134650000Y-127130000I0J-300000D01*
G01*
X134650000Y-127730000D01*
G75*
G02*
X134350000Y-128030000I-300000J0D01*
G01*
X133550000Y-128030000D01*
G75*
G02*
X133250000Y-127730000I0J300000D01*
G01*
G37*
G36*
G01*
X135450000Y-127730000D02*
X135450000Y-127130000D01*
G75*
G02*
X135750000Y-126830000I300000J0D01*
G01*
X136550000Y-126830000D01*
G75*
G02*
X136850000Y-127130000I0J-300000D01*
G01*
X136850000Y-127730000D01*
G75*
G02*
X136550000Y-128030000I-300000J0D01*
G01*
X135750000Y-128030000D01*
G75*
G02*
X135450000Y-127730000I0J300000D01*
G01*
G37*
G36*
G01*
X135450000Y-129430000D02*
X135450000Y-128830000D01*
G75*
G02*
X135750000Y-128530000I300000J0D01*
G01*
X136550000Y-128530000D01*
G75*
G02*
X136850000Y-128830000I0J-300000D01*
G01*
X136850000Y-129430000D01*
G75*
G02*
X136550000Y-129730000I-300000J0D01*
G01*
X135750000Y-129730000D01*
G75*
G02*
X135450000Y-129430000I0J300000D01*
G01*
G37*
G36*
G01*
X133250000Y-129430000D02*
X133250000Y-128830000D01*
G75*
G02*
X133550000Y-128530000I300000J0D01*
G01*
X134350000Y-128530000D01*
G75*
G02*
X134650000Y-128830000I0J-300000D01*
G01*
X134650000Y-129430000D01*
G75*
G02*
X134350000Y-129730000I-300000J0D01*
G01*
X133550000Y-129730000D01*
G75*
G02*
X133250000Y-129430000I0J300000D01*
G01*
G37*
M02*
