M48
; DRILL file {KiCad 5.1.6-c6e7f7d~87~ubuntu20.04.1} date Tue Sep  1 15:12:58 2020
; FORMAT={-:-/ absolute / metric / decimal}
; #@! TF.CreationDate,2020-09-01T15:12:58+02:00
; #@! TF.GenerationSoftware,Kicad,Pcbnew,5.1.6-c6e7f7d~87~ubuntu20.04.1
; #@! TF.FileFunction,Plated,1,2,PTH
FMAT,2
METRIC
T1C0.400
T2C1.000
T3C1.500
%
G90
G05
T1
X92.75Y-108.5
X92.75Y-109.5
X92.75Y-110.5
X92.75Y-111.5
X93.5Y-112.0
X94.5Y-112.0
X95.5Y-112.0
X96.5Y-112.0
X97.5Y-108.5
X97.5Y-109.5
X97.5Y-110.5
X97.5Y-111.5
X98.25Y-109.0
X98.25Y-110.0
X98.25Y-111.0
X98.25Y-112.0
X103.75Y-123.5
X104.0Y-115.0
X104.0Y-127.0
X104.0Y-135.0
X105.0Y-125.0
X106.0Y-135.0
X106.5Y-105.0
X106.5Y-107.0
X106.5Y-109.0
X106.605Y-126.89
X107.0Y-115.0
X107.16Y-128.43
X107.226Y-107.981
X107.25Y-106.0
X108.0Y-105.0
X108.0Y-107.0
X108.25Y-131.5
X108.5Y-116.0
X108.5Y-119.5
X108.5Y-123.0
X108.5Y-126.0
X111.0Y-124.25
X111.0Y-128.0
X111.0Y-131.5
X113.0Y-131.5
X113.75Y-134.25
X113.75Y-135.25
X119.05Y-131.5
X120.0Y-113.9
X122.5Y-122.75
X123.0Y-116.0
X123.0Y-118.0
X123.75Y-128.0
X123.75Y-131.75
X126.0Y-108.0
X126.0Y-111.0
X126.0Y-114.0
X126.0Y-117.0
X126.5Y-128.0
X126.5Y-132.0
X126.5Y-135.0
X129.0Y-105.0
X129.0Y-108.0
X129.0Y-111.0
X129.0Y-114.0
X129.0Y-117.0
X129.0Y-120.0
X129.0Y-124.8
X129.5Y-128.0
X129.816Y-131.806
X131.222Y-126.24
X134.0Y-104.5
X134.0Y-113.5
X134.5Y-120.5
X135.9Y-123.6
X136.0Y-134.0
X136.7Y-118.1
X137.0Y-120.5
X137.5Y-104.5
X137.5Y-132.5
X138.6Y-128.91
X138.725Y-118.375
X138.96Y-123.14
X139.0Y-108.5
X139.0Y-120.5
X139.0Y-134.0
X139.5Y-119.1
X139.8Y-128.9
X140.625Y-112.5
X140.875Y-128.9
X141.0Y-127.6
X142.0Y-106.25
X142.2Y-127.6
X143.0Y-114.0
X143.0Y-117.0
X143.23Y-131.2
X143.75Y-104.25
X144.75Y-106.75
X144.75Y-121.25
X144.75Y-123.75
X145.0Y-110.0
X146.0Y-122.5
X147.0Y-134.0
X147.25Y-121.25
X147.25Y-123.75
X147.5Y-104.25
X147.5Y-106.75
X150.0Y-105.75
X152.0Y-105.0
X156.0Y-105.0
T2
X146.84Y-110.75
X149.38Y-110.75
X151.92Y-110.75
X154.46Y-110.75
X157.0Y-110.75
T3
X95.0Y-104.5
X95.0Y-109.5
T0
M30
