M48
; DRILL file {KiCad 5.1.7-a382d34a8~88~ubuntu20.04.1} date Tue Feb  9 11:34:03 2021
; FORMAT={-:-/ absolute / metric / decimal}
; #@! TF.CreationDate,2021-02-09T11:34:03+01:00
; #@! TF.GenerationSoftware,Kicad,Pcbnew,5.1.7-a382d34a8~88~ubuntu20.04.1
; #@! TF.FileFunction,Plated,1,2,PTH
FMAT,2
METRIC
T1C0.300
T2C0.400
T3C0.800
T4C1.000
T5C3.200
%
G90
G05
T1
X66.0Y-101.0
X71.55Y-89.45
X77.75Y-91.0
X83.5Y-91.0
X91.55Y-84.2
X98.75Y-85.5
X106.25Y-101.25
X106.5Y-92.75
X106.9Y-100.4
X107.35Y-99.6
X107.5Y-92.75
X107.6Y-102.9
X110.0Y-98.75
X110.6Y-97.9
X112.175Y-104.275
X112.25Y-105.25
X114.4Y-100.9
X115.2Y-105.25
X115.75Y-97.25
X132.5Y-94.25
X133.0Y-101.0
X133.0Y-104.6
X137.0Y-94.25
X71.5Y-95.0
X72.0Y-94.0
X72.0Y-96.0
X72.5Y-95.0
T2
X62.0Y-87.5
X62.0Y-112.5
X64.5Y-87.5
X66.537Y-87.4
X66.6Y-90.6
X67.0Y-105.6
X67.0Y-108.5
X67.0Y-112.5
X67.75Y-100.0
X69.75Y-101.0
X72.0Y-103.25
X72.0Y-105.6
X72.0Y-108.5
X75.712Y-112.287
X76.462Y-112.287
X77.0Y-103.25
X77.0Y-105.6
X77.0Y-108.5
X77.0Y-111.0
X79.5Y-103.25
X79.5Y-105.6
X82.0Y-107.0
X83.0Y-101.2
X83.0Y-105.6
X84.5Y-105.6
X84.5Y-112.5
X85.6Y-99.0
X86.537Y-82.462
X87.287Y-82.462
X89.0Y-99.0
X89.46Y-105.96
X89.46Y-107.96
X89.46Y-112.96
X91.0Y-96.0
X92.0Y-99.0
X94.5Y-102.5
X94.5Y-112.5
X95.0Y-99.0
X95.712Y-117.537
X96.0Y-90.0
X96.0Y-94.0
X96.462Y-117.537
X97.0Y-105.0
X98.0Y-98.25
X99.0Y-106.5
X99.5Y-90.0
X99.5Y-92.5
X99.5Y-102.5
X99.5Y-110.0
X99.5Y-112.5
X101.5Y-108.0
X101.75Y-98.25
X101.75Y-102.0
X102.0Y-87.5
X102.0Y-92.5
X102.472Y-105.34
X102.537Y-82.462
X103.0Y-106.5
X103.287Y-82.462
X104.5Y-87.5
X104.5Y-90.0
X104.5Y-112.5
X105.5Y-98.25
X105.5Y-102.0
X106.8Y-102.0
X109.25Y-106.5
X109.5Y-87.5
X109.5Y-90.0
X110.5Y-102.5
X111.0Y-93.25
X111.712Y-117.537
X112.0Y-87.5
X112.0Y-107.5
X112.0Y-112.5
X112.212Y-95.962
X112.462Y-117.537
X114.48Y-110.3
X114.5Y-90.0
X114.5Y-99.0
X115.0Y-93.25
X115.5Y-108.0
X116.0Y-102.85
X116.5Y-101.0
X117.0Y-90.0
X119.5Y-87.5
X119.5Y-92.5
X119.5Y-105.0
X119.5Y-111.0
X122.0Y-92.5
X122.0Y-107.5
X122.0Y-112.5
X123.537Y-87.712
X124.2Y-105.0
X124.287Y-87.712
X131.5Y-113.5
X131.5Y-114.25
T3
X63.0Y-91.0
X63.0Y-93.0
X63.0Y-95.0
X63.0Y-97.0
X63.0Y-99.0
X63.0Y-101.0
X63.0Y-103.0
X63.0Y-105.0
X63.0Y-107.0
X63.0Y-109.0
T4
X137.75Y-102.0
X137.75Y-104.54
X137.75Y-107.08
X137.75Y-109.62
X137.75Y-112.16
T5
X120.0Y-100.0
X80.0Y-116.5
X80.0Y-83.5
T0
M30
