G04 #@! TF.GenerationSoftware,KiCad,Pcbnew,5.1.7-a382d34a8~88~ubuntu20.04.1*
G04 #@! TF.CreationDate,2021-02-09T11:34:01+01:00*
G04 #@! TF.ProjectId,UVDAR_Module,55564441-525f-44d6-9f64-756c652e6b69,rev?*
G04 #@! TF.SameCoordinates,Original*
G04 #@! TF.FileFunction,Soldermask,Top*
G04 #@! TF.FilePolarity,Negative*
%FSLAX46Y46*%
G04 Gerber Fmt 4.6, Leading zero omitted, Abs format (unit mm)*
G04 Created by KiCad (PCBNEW 5.1.7-a382d34a8~88~ubuntu20.04.1) date 2021-02-09 11:34:01*
%MOMM*%
%LPD*%
G01*
G04 APERTURE LIST*
%ADD10C,0.500000*%
%ADD11R,1.700000X2.500000*%
%ADD12R,0.600000X0.250000*%
%ADD13R,0.875000X0.950000*%
%ADD14R,1.400000X4.000000*%
%ADD15R,0.950000X0.875000*%
%ADD16O,1.700000X1.700000*%
%ADD17R,1.700000X1.700000*%
%ADD18R,1.000000X0.550000*%
%ADD19R,1.350000X1.350000*%
%ADD20O,1.350000X1.350000*%
%ADD21C,4.000000*%
%ADD22R,1.200000X2.100000*%
%ADD23R,1.200000X4.000000*%
%ADD24R,1.800000X3.400000*%
%ADD25C,0.100000*%
%ADD26R,0.900000X1.200000*%
%ADD27R,1.500000X2.000000*%
%ADD28R,3.800000X2.000000*%
G04 APERTURE END LIST*
G36*
G01*
X95125000Y-107975000D02*
X93875000Y-107975000D01*
G75*
G02*
X93625000Y-107725000I0J250000D01*
G01*
X93625000Y-106975000D01*
G75*
G02*
X93875000Y-106725000I250000J0D01*
G01*
X95125000Y-106725000D01*
G75*
G02*
X95375000Y-106975000I0J-250000D01*
G01*
X95375000Y-107725000D01*
G75*
G02*
X95125000Y-107975000I-250000J0D01*
G01*
G37*
G36*
G01*
X95125000Y-110775000D02*
X93875000Y-110775000D01*
G75*
G02*
X93625000Y-110525000I0J250000D01*
G01*
X93625000Y-109775000D01*
G75*
G02*
X93875000Y-109525000I250000J0D01*
G01*
X95125000Y-109525000D01*
G75*
G02*
X95375000Y-109775000I0J-250000D01*
G01*
X95375000Y-110525000D01*
G75*
G02*
X95125000Y-110775000I-250000J0D01*
G01*
G37*
G36*
G01*
X85125000Y-107975000D02*
X83875000Y-107975000D01*
G75*
G02*
X83625000Y-107725000I0J250000D01*
G01*
X83625000Y-106975000D01*
G75*
G02*
X83875000Y-106725000I250000J0D01*
G01*
X85125000Y-106725000D01*
G75*
G02*
X85375000Y-106975000I0J-250000D01*
G01*
X85375000Y-107725000D01*
G75*
G02*
X85125000Y-107975000I-250000J0D01*
G01*
G37*
G36*
G01*
X85125000Y-110775000D02*
X83875000Y-110775000D01*
G75*
G02*
X83625000Y-110525000I0J250000D01*
G01*
X83625000Y-109775000D01*
G75*
G02*
X83875000Y-109525000I250000J0D01*
G01*
X85125000Y-109525000D01*
G75*
G02*
X85375000Y-109775000I0J-250000D01*
G01*
X85375000Y-110525000D01*
G75*
G02*
X85125000Y-110775000I-250000J0D01*
G01*
G37*
D10*
X72000000Y-94000000D03*
X72000000Y-96000000D03*
X71500000Y-95000000D03*
X72500000Y-95000000D03*
D11*
X72000000Y-95000000D03*
D12*
X70565000Y-95250000D03*
X70565000Y-93750000D03*
X70565000Y-95750000D03*
X70565000Y-94750000D03*
X70565000Y-96250000D03*
X70565000Y-94250000D03*
X73435000Y-93750000D03*
X73435000Y-94250000D03*
X73435000Y-94750000D03*
X73435000Y-95250000D03*
X73435000Y-95750000D03*
X73435000Y-96250000D03*
D13*
X75212500Y-89250000D03*
X76787500Y-89250000D03*
X76787500Y-91000000D03*
X75212500Y-91000000D03*
D14*
X76500000Y-99750000D03*
X73500000Y-99750000D03*
G36*
G01*
X81225000Y-92993750D02*
X81225000Y-93506250D01*
G75*
G02*
X81006250Y-93725000I-218750J0D01*
G01*
X80568750Y-93725000D01*
G75*
G02*
X80350000Y-93506250I0J218750D01*
G01*
X80350000Y-92993750D01*
G75*
G02*
X80568750Y-92775000I218750J0D01*
G01*
X81006250Y-92775000D01*
G75*
G02*
X81225000Y-92993750I0J-218750D01*
G01*
G37*
G36*
G01*
X79650000Y-92993750D02*
X79650000Y-93506250D01*
G75*
G02*
X79431250Y-93725000I-218750J0D01*
G01*
X78993750Y-93725000D01*
G75*
G02*
X78775000Y-93506250I0J218750D01*
G01*
X78775000Y-92993750D01*
G75*
G02*
X78993750Y-92775000I218750J0D01*
G01*
X79431250Y-92775000D01*
G75*
G02*
X79650000Y-92993750I0J-218750D01*
G01*
G37*
G36*
G01*
X79225000Y-94625000D02*
X79225000Y-95875000D01*
G75*
G02*
X78975000Y-96125000I-250000J0D01*
G01*
X78225000Y-96125000D01*
G75*
G02*
X77975000Y-95875000I0J250000D01*
G01*
X77975000Y-94625000D01*
G75*
G02*
X78225000Y-94375000I250000J0D01*
G01*
X78975000Y-94375000D01*
G75*
G02*
X79225000Y-94625000I0J-250000D01*
G01*
G37*
G36*
G01*
X82025000Y-94625000D02*
X82025000Y-95875000D01*
G75*
G02*
X81775000Y-96125000I-250000J0D01*
G01*
X81025000Y-96125000D01*
G75*
G02*
X80775000Y-95875000I0J250000D01*
G01*
X80775000Y-94625000D01*
G75*
G02*
X81025000Y-94375000I250000J0D01*
G01*
X81775000Y-94375000D01*
G75*
G02*
X82025000Y-94625000I0J-250000D01*
G01*
G37*
G36*
G01*
X77225000Y-92493750D02*
X77225000Y-93006250D01*
G75*
G02*
X77006250Y-93225000I-218750J0D01*
G01*
X76568750Y-93225000D01*
G75*
G02*
X76350000Y-93006250I0J218750D01*
G01*
X76350000Y-92493750D01*
G75*
G02*
X76568750Y-92275000I218750J0D01*
G01*
X77006250Y-92275000D01*
G75*
G02*
X77225000Y-92493750I0J-218750D01*
G01*
G37*
G36*
G01*
X75650000Y-92493750D02*
X75650000Y-93006250D01*
G75*
G02*
X75431250Y-93225000I-218750J0D01*
G01*
X74993750Y-93225000D01*
G75*
G02*
X74775000Y-93006250I0J218750D01*
G01*
X74775000Y-92493750D01*
G75*
G02*
X74993750Y-92275000I218750J0D01*
G01*
X75431250Y-92275000D01*
G75*
G02*
X75650000Y-92493750I0J-218750D01*
G01*
G37*
G36*
G01*
X77225000Y-95993750D02*
X77225000Y-96506250D01*
G75*
G02*
X77006250Y-96725000I-218750J0D01*
G01*
X76568750Y-96725000D01*
G75*
G02*
X76350000Y-96506250I0J218750D01*
G01*
X76350000Y-95993750D01*
G75*
G02*
X76568750Y-95775000I218750J0D01*
G01*
X77006250Y-95775000D01*
G75*
G02*
X77225000Y-95993750I0J-218750D01*
G01*
G37*
G36*
G01*
X75650000Y-95993750D02*
X75650000Y-96506250D01*
G75*
G02*
X75431250Y-96725000I-218750J0D01*
G01*
X74993750Y-96725000D01*
G75*
G02*
X74775000Y-96506250I0J218750D01*
G01*
X74775000Y-95993750D01*
G75*
G02*
X74993750Y-95775000I218750J0D01*
G01*
X75431250Y-95775000D01*
G75*
G02*
X75650000Y-95993750I0J-218750D01*
G01*
G37*
G36*
G01*
X74775000Y-94756250D02*
X74775000Y-94243750D01*
G75*
G02*
X74993750Y-94025000I218750J0D01*
G01*
X75431250Y-94025000D01*
G75*
G02*
X75650000Y-94243750I0J-218750D01*
G01*
X75650000Y-94756250D01*
G75*
G02*
X75431250Y-94975000I-218750J0D01*
G01*
X74993750Y-94975000D01*
G75*
G02*
X74775000Y-94756250I0J218750D01*
G01*
G37*
G36*
G01*
X76350000Y-94756250D02*
X76350000Y-94243750D01*
G75*
G02*
X76568750Y-94025000I218750J0D01*
G01*
X77006250Y-94025000D01*
G75*
G02*
X77225000Y-94243750I0J-218750D01*
G01*
X77225000Y-94756250D01*
G75*
G02*
X77006250Y-94975000I-218750J0D01*
G01*
X76568750Y-94975000D01*
G75*
G02*
X76350000Y-94756250I0J218750D01*
G01*
G37*
G36*
G01*
X65993750Y-95025000D02*
X66506250Y-95025000D01*
G75*
G02*
X66725000Y-95243750I0J-218750D01*
G01*
X66725000Y-95681250D01*
G75*
G02*
X66506250Y-95900000I-218750J0D01*
G01*
X65993750Y-95900000D01*
G75*
G02*
X65775000Y-95681250I0J218750D01*
G01*
X65775000Y-95243750D01*
G75*
G02*
X65993750Y-95025000I218750J0D01*
G01*
G37*
G36*
G01*
X65993750Y-96600000D02*
X66506250Y-96600000D01*
G75*
G02*
X66725000Y-96818750I0J-218750D01*
G01*
X66725000Y-97256250D01*
G75*
G02*
X66506250Y-97475000I-218750J0D01*
G01*
X65993750Y-97475000D01*
G75*
G02*
X65775000Y-97256250I0J218750D01*
G01*
X65775000Y-96818750D01*
G75*
G02*
X65993750Y-96600000I218750J0D01*
G01*
G37*
G36*
G01*
X67625000Y-97025000D02*
X68875000Y-97025000D01*
G75*
G02*
X69125000Y-97275000I0J-250000D01*
G01*
X69125000Y-98025000D01*
G75*
G02*
X68875000Y-98275000I-250000J0D01*
G01*
X67625000Y-98275000D01*
G75*
G02*
X67375000Y-98025000I0J250000D01*
G01*
X67375000Y-97275000D01*
G75*
G02*
X67625000Y-97025000I250000J0D01*
G01*
G37*
G36*
G01*
X67625000Y-94225000D02*
X68875000Y-94225000D01*
G75*
G02*
X69125000Y-94475000I0J-250000D01*
G01*
X69125000Y-95225000D01*
G75*
G02*
X68875000Y-95475000I-250000J0D01*
G01*
X67625000Y-95475000D01*
G75*
G02*
X67375000Y-95225000I0J250000D01*
G01*
X67375000Y-94475000D01*
G75*
G02*
X67625000Y-94225000I250000J0D01*
G01*
G37*
D15*
X114500000Y-97787500D03*
X114500000Y-96212500D03*
X133000000Y-103537500D03*
X133000000Y-101962500D03*
D16*
X137750000Y-112160000D03*
X137750000Y-109620000D03*
X137750000Y-107080000D03*
X137750000Y-104540000D03*
D17*
X137750000Y-102000000D03*
G36*
G01*
X111775000Y-95006250D02*
X111775000Y-94493750D01*
G75*
G02*
X111993750Y-94275000I218750J0D01*
G01*
X112431250Y-94275000D01*
G75*
G02*
X112650000Y-94493750I0J-218750D01*
G01*
X112650000Y-95006250D01*
G75*
G02*
X112431250Y-95225000I-218750J0D01*
G01*
X111993750Y-95225000D01*
G75*
G02*
X111775000Y-95006250I0J218750D01*
G01*
G37*
G36*
G01*
X113350000Y-95006250D02*
X113350000Y-94493750D01*
G75*
G02*
X113568750Y-94275000I218750J0D01*
G01*
X114006250Y-94275000D01*
G75*
G02*
X114225000Y-94493750I0J-218750D01*
G01*
X114225000Y-95006250D01*
G75*
G02*
X114006250Y-95225000I-218750J0D01*
G01*
X113568750Y-95225000D01*
G75*
G02*
X113350000Y-95006250I0J218750D01*
G01*
G37*
D18*
X72800000Y-89450000D03*
X72800000Y-88500000D03*
X72800000Y-87550000D03*
X70200000Y-87550000D03*
X70200000Y-88500000D03*
X70200000Y-89450000D03*
D15*
X68500000Y-87712500D03*
X68500000Y-89287500D03*
D18*
X127200000Y-110550000D03*
X127200000Y-111500000D03*
X127200000Y-112450000D03*
X129800000Y-112450000D03*
X129800000Y-111500000D03*
X129800000Y-110550000D03*
D15*
X131500000Y-112287500D03*
X131500000Y-110712500D03*
D18*
X129800000Y-89450000D03*
X129800000Y-88500000D03*
X129800000Y-87550000D03*
X127200000Y-87550000D03*
X127200000Y-88500000D03*
X127200000Y-89450000D03*
D15*
X125500000Y-87712500D03*
X125500000Y-89287500D03*
D18*
X90200000Y-84200000D03*
X90200000Y-83250000D03*
X90200000Y-82300000D03*
X92800000Y-82300000D03*
X92800000Y-83250000D03*
X92800000Y-84200000D03*
D15*
X88500000Y-84037500D03*
X88500000Y-82462500D03*
D18*
X106200000Y-84200000D03*
X106200000Y-83250000D03*
X106200000Y-82300000D03*
X108800000Y-82300000D03*
X108800000Y-83250000D03*
X108800000Y-84200000D03*
D15*
X104500000Y-84037500D03*
X104500000Y-82462500D03*
D18*
X108800000Y-115800000D03*
X108800000Y-116750000D03*
X108800000Y-117700000D03*
X106200000Y-117700000D03*
X106200000Y-116750000D03*
X106200000Y-115800000D03*
D15*
X110500000Y-115962500D03*
X110500000Y-117537500D03*
D18*
X90200000Y-115800000D03*
X90200000Y-116750000D03*
X90200000Y-117700000D03*
X92800000Y-117700000D03*
X92800000Y-116750000D03*
X92800000Y-115800000D03*
D15*
X94500000Y-117537500D03*
X94500000Y-115962500D03*
D19*
X63000000Y-91000000D03*
D20*
X63000000Y-93000000D03*
X63000000Y-95000000D03*
X63000000Y-97000000D03*
X63000000Y-99000000D03*
X63000000Y-101000000D03*
X63000000Y-103000000D03*
X63000000Y-105000000D03*
X63000000Y-107000000D03*
X63000000Y-109000000D03*
D21*
X120000000Y-100000000D03*
X80000000Y-116500000D03*
X80000000Y-83500000D03*
D13*
X113787500Y-93250000D03*
X112212500Y-93250000D03*
D22*
X132500000Y-98250000D03*
X137000000Y-98250000D03*
X132500000Y-90250000D03*
X137000000Y-90250000D03*
G36*
G01*
X113350000Y-92006250D02*
X113350000Y-91493750D01*
G75*
G02*
X113568750Y-91275000I218750J0D01*
G01*
X114006250Y-91275000D01*
G75*
G02*
X114225000Y-91493750I0J-218750D01*
G01*
X114225000Y-92006250D01*
G75*
G02*
X114006250Y-92225000I-218750J0D01*
G01*
X113568750Y-92225000D01*
G75*
G02*
X113350000Y-92006250I0J218750D01*
G01*
G37*
G36*
G01*
X111775000Y-92006250D02*
X111775000Y-91493750D01*
G75*
G02*
X111993750Y-91275000I218750J0D01*
G01*
X112431250Y-91275000D01*
G75*
G02*
X112650000Y-91493750I0J-218750D01*
G01*
X112650000Y-92006250D01*
G75*
G02*
X112431250Y-92225000I-218750J0D01*
G01*
X111993750Y-92225000D01*
G75*
G02*
X111775000Y-92006250I0J218750D01*
G01*
G37*
G36*
G01*
X96756250Y-110225000D02*
X96243750Y-110225000D01*
G75*
G02*
X96025000Y-110006250I0J218750D01*
G01*
X96025000Y-109568750D01*
G75*
G02*
X96243750Y-109350000I218750J0D01*
G01*
X96756250Y-109350000D01*
G75*
G02*
X96975000Y-109568750I0J-218750D01*
G01*
X96975000Y-110006250D01*
G75*
G02*
X96756250Y-110225000I-218750J0D01*
G01*
G37*
G36*
G01*
X96756250Y-108650000D02*
X96243750Y-108650000D01*
G75*
G02*
X96025000Y-108431250I0J218750D01*
G01*
X96025000Y-107993750D01*
G75*
G02*
X96243750Y-107775000I218750J0D01*
G01*
X96756250Y-107775000D01*
G75*
G02*
X96975000Y-107993750I0J-218750D01*
G01*
X96975000Y-108431250D01*
G75*
G02*
X96756250Y-108650000I-218750J0D01*
G01*
G37*
G36*
G01*
X109025000Y-110143750D02*
X109025000Y-110656250D01*
G75*
G02*
X108806250Y-110875000I-218750J0D01*
G01*
X108368750Y-110875000D01*
G75*
G02*
X108150000Y-110656250I0J218750D01*
G01*
X108150000Y-110143750D01*
G75*
G02*
X108368750Y-109925000I218750J0D01*
G01*
X108806250Y-109925000D01*
G75*
G02*
X109025000Y-110143750I0J-218750D01*
G01*
G37*
G36*
G01*
X107450000Y-110143750D02*
X107450000Y-110656250D01*
G75*
G02*
X107231250Y-110875000I-218750J0D01*
G01*
X106793750Y-110875000D01*
G75*
G02*
X106575000Y-110656250I0J218750D01*
G01*
X106575000Y-110143750D01*
G75*
G02*
X106793750Y-109925000I218750J0D01*
G01*
X107231250Y-109925000D01*
G75*
G02*
X107450000Y-110143750I0J-218750D01*
G01*
G37*
G36*
G01*
X106025000Y-110143750D02*
X106025000Y-110656250D01*
G75*
G02*
X105806250Y-110875000I-218750J0D01*
G01*
X105368750Y-110875000D01*
G75*
G02*
X105150000Y-110656250I0J218750D01*
G01*
X105150000Y-110143750D01*
G75*
G02*
X105368750Y-109925000I218750J0D01*
G01*
X105806250Y-109925000D01*
G75*
G02*
X106025000Y-110143750I0J-218750D01*
G01*
G37*
G36*
G01*
X104450000Y-110143750D02*
X104450000Y-110656250D01*
G75*
G02*
X104231250Y-110875000I-218750J0D01*
G01*
X103793750Y-110875000D01*
G75*
G02*
X103575000Y-110656250I0J218750D01*
G01*
X103575000Y-110143750D01*
G75*
G02*
X103793750Y-109925000I218750J0D01*
G01*
X104231250Y-109925000D01*
G75*
G02*
X104450000Y-110143750I0J-218750D01*
G01*
G37*
G36*
G01*
X103875000Y-103843750D02*
X103875000Y-104356250D01*
G75*
G02*
X103656250Y-104575000I-218750J0D01*
G01*
X103218750Y-104575000D01*
G75*
G02*
X103000000Y-104356250I0J218750D01*
G01*
X103000000Y-103843750D01*
G75*
G02*
X103218750Y-103625000I218750J0D01*
G01*
X103656250Y-103625000D01*
G75*
G02*
X103875000Y-103843750I0J-218750D01*
G01*
G37*
G36*
G01*
X102300000Y-103843750D02*
X102300000Y-104356250D01*
G75*
G02*
X102081250Y-104575000I-218750J0D01*
G01*
X101643750Y-104575000D01*
G75*
G02*
X101425000Y-104356250I0J218750D01*
G01*
X101425000Y-103843750D01*
G75*
G02*
X101643750Y-103625000I218750J0D01*
G01*
X102081250Y-103625000D01*
G75*
G02*
X102300000Y-103843750I0J-218750D01*
G01*
G37*
D15*
X74500000Y-110712500D03*
X74500000Y-112287500D03*
G36*
G01*
X104450000Y-103050000D02*
X103200000Y-103050000D01*
G75*
G02*
X103075000Y-102925000I0J125000D01*
G01*
X103075000Y-102675000D01*
G75*
G02*
X103200000Y-102550000I125000J0D01*
G01*
X104450000Y-102550000D01*
G75*
G02*
X104575000Y-102675000I0J-125000D01*
G01*
X104575000Y-102925000D01*
G75*
G02*
X104450000Y-103050000I-125000J0D01*
G01*
G37*
G36*
G01*
X104450000Y-102250000D02*
X103200000Y-102250000D01*
G75*
G02*
X103075000Y-102125000I0J125000D01*
G01*
X103075000Y-101875000D01*
G75*
G02*
X103200000Y-101750000I125000J0D01*
G01*
X104450000Y-101750000D01*
G75*
G02*
X104575000Y-101875000I0J-125000D01*
G01*
X104575000Y-102125000D01*
G75*
G02*
X104450000Y-102250000I-125000J0D01*
G01*
G37*
G36*
G01*
X104450000Y-101450000D02*
X103200000Y-101450000D01*
G75*
G02*
X103075000Y-101325000I0J125000D01*
G01*
X103075000Y-101075000D01*
G75*
G02*
X103200000Y-100950000I125000J0D01*
G01*
X104450000Y-100950000D01*
G75*
G02*
X104575000Y-101075000I0J-125000D01*
G01*
X104575000Y-101325000D01*
G75*
G02*
X104450000Y-101450000I-125000J0D01*
G01*
G37*
G36*
G01*
X104450000Y-100650000D02*
X103200000Y-100650000D01*
G75*
G02*
X103075000Y-100525000I0J125000D01*
G01*
X103075000Y-100275000D01*
G75*
G02*
X103200000Y-100150000I125000J0D01*
G01*
X104450000Y-100150000D01*
G75*
G02*
X104575000Y-100275000I0J-125000D01*
G01*
X104575000Y-100525000D01*
G75*
G02*
X104450000Y-100650000I-125000J0D01*
G01*
G37*
G36*
G01*
X104450000Y-99850000D02*
X103200000Y-99850000D01*
G75*
G02*
X103075000Y-99725000I0J125000D01*
G01*
X103075000Y-99475000D01*
G75*
G02*
X103200000Y-99350000I125000J0D01*
G01*
X104450000Y-99350000D01*
G75*
G02*
X104575000Y-99475000I0J-125000D01*
G01*
X104575000Y-99725000D01*
G75*
G02*
X104450000Y-99850000I-125000J0D01*
G01*
G37*
G36*
G01*
X104450000Y-99050000D02*
X103200000Y-99050000D01*
G75*
G02*
X103075000Y-98925000I0J125000D01*
G01*
X103075000Y-98675000D01*
G75*
G02*
X103200000Y-98550000I125000J0D01*
G01*
X104450000Y-98550000D01*
G75*
G02*
X104575000Y-98675000I0J-125000D01*
G01*
X104575000Y-98925000D01*
G75*
G02*
X104450000Y-99050000I-125000J0D01*
G01*
G37*
G36*
G01*
X104450000Y-98250000D02*
X103200000Y-98250000D01*
G75*
G02*
X103075000Y-98125000I0J125000D01*
G01*
X103075000Y-97875000D01*
G75*
G02*
X103200000Y-97750000I125000J0D01*
G01*
X104450000Y-97750000D01*
G75*
G02*
X104575000Y-97875000I0J-125000D01*
G01*
X104575000Y-98125000D01*
G75*
G02*
X104450000Y-98250000I-125000J0D01*
G01*
G37*
G36*
G01*
X104450000Y-97450000D02*
X103200000Y-97450000D01*
G75*
G02*
X103075000Y-97325000I0J125000D01*
G01*
X103075000Y-97075000D01*
G75*
G02*
X103200000Y-96950000I125000J0D01*
G01*
X104450000Y-96950000D01*
G75*
G02*
X104575000Y-97075000I0J-125000D01*
G01*
X104575000Y-97325000D01*
G75*
G02*
X104450000Y-97450000I-125000J0D01*
G01*
G37*
G36*
G01*
X105325000Y-96575000D02*
X105075000Y-96575000D01*
G75*
G02*
X104950000Y-96450000I0J125000D01*
G01*
X104950000Y-95200000D01*
G75*
G02*
X105075000Y-95075000I125000J0D01*
G01*
X105325000Y-95075000D01*
G75*
G02*
X105450000Y-95200000I0J-125000D01*
G01*
X105450000Y-96450000D01*
G75*
G02*
X105325000Y-96575000I-125000J0D01*
G01*
G37*
G36*
G01*
X106125000Y-96575000D02*
X105875000Y-96575000D01*
G75*
G02*
X105750000Y-96450000I0J125000D01*
G01*
X105750000Y-95200000D01*
G75*
G02*
X105875000Y-95075000I125000J0D01*
G01*
X106125000Y-95075000D01*
G75*
G02*
X106250000Y-95200000I0J-125000D01*
G01*
X106250000Y-96450000D01*
G75*
G02*
X106125000Y-96575000I-125000J0D01*
G01*
G37*
G36*
G01*
X106925000Y-96575000D02*
X106675000Y-96575000D01*
G75*
G02*
X106550000Y-96450000I0J125000D01*
G01*
X106550000Y-95200000D01*
G75*
G02*
X106675000Y-95075000I125000J0D01*
G01*
X106925000Y-95075000D01*
G75*
G02*
X107050000Y-95200000I0J-125000D01*
G01*
X107050000Y-96450000D01*
G75*
G02*
X106925000Y-96575000I-125000J0D01*
G01*
G37*
G36*
G01*
X107725000Y-96575000D02*
X107475000Y-96575000D01*
G75*
G02*
X107350000Y-96450000I0J125000D01*
G01*
X107350000Y-95200000D01*
G75*
G02*
X107475000Y-95075000I125000J0D01*
G01*
X107725000Y-95075000D01*
G75*
G02*
X107850000Y-95200000I0J-125000D01*
G01*
X107850000Y-96450000D01*
G75*
G02*
X107725000Y-96575000I-125000J0D01*
G01*
G37*
G36*
G01*
X108525000Y-96575000D02*
X108275000Y-96575000D01*
G75*
G02*
X108150000Y-96450000I0J125000D01*
G01*
X108150000Y-95200000D01*
G75*
G02*
X108275000Y-95075000I125000J0D01*
G01*
X108525000Y-95075000D01*
G75*
G02*
X108650000Y-95200000I0J-125000D01*
G01*
X108650000Y-96450000D01*
G75*
G02*
X108525000Y-96575000I-125000J0D01*
G01*
G37*
G36*
G01*
X109325000Y-96575000D02*
X109075000Y-96575000D01*
G75*
G02*
X108950000Y-96450000I0J125000D01*
G01*
X108950000Y-95200000D01*
G75*
G02*
X109075000Y-95075000I125000J0D01*
G01*
X109325000Y-95075000D01*
G75*
G02*
X109450000Y-95200000I0J-125000D01*
G01*
X109450000Y-96450000D01*
G75*
G02*
X109325000Y-96575000I-125000J0D01*
G01*
G37*
G36*
G01*
X110125000Y-96575000D02*
X109875000Y-96575000D01*
G75*
G02*
X109750000Y-96450000I0J125000D01*
G01*
X109750000Y-95200000D01*
G75*
G02*
X109875000Y-95075000I125000J0D01*
G01*
X110125000Y-95075000D01*
G75*
G02*
X110250000Y-95200000I0J-125000D01*
G01*
X110250000Y-96450000D01*
G75*
G02*
X110125000Y-96575000I-125000J0D01*
G01*
G37*
G36*
G01*
X110925000Y-96575000D02*
X110675000Y-96575000D01*
G75*
G02*
X110550000Y-96450000I0J125000D01*
G01*
X110550000Y-95200000D01*
G75*
G02*
X110675000Y-95075000I125000J0D01*
G01*
X110925000Y-95075000D01*
G75*
G02*
X111050000Y-95200000I0J-125000D01*
G01*
X111050000Y-96450000D01*
G75*
G02*
X110925000Y-96575000I-125000J0D01*
G01*
G37*
G36*
G01*
X112800000Y-97450000D02*
X111550000Y-97450000D01*
G75*
G02*
X111425000Y-97325000I0J125000D01*
G01*
X111425000Y-97075000D01*
G75*
G02*
X111550000Y-96950000I125000J0D01*
G01*
X112800000Y-96950000D01*
G75*
G02*
X112925000Y-97075000I0J-125000D01*
G01*
X112925000Y-97325000D01*
G75*
G02*
X112800000Y-97450000I-125000J0D01*
G01*
G37*
G36*
G01*
X112800000Y-98250000D02*
X111550000Y-98250000D01*
G75*
G02*
X111425000Y-98125000I0J125000D01*
G01*
X111425000Y-97875000D01*
G75*
G02*
X111550000Y-97750000I125000J0D01*
G01*
X112800000Y-97750000D01*
G75*
G02*
X112925000Y-97875000I0J-125000D01*
G01*
X112925000Y-98125000D01*
G75*
G02*
X112800000Y-98250000I-125000J0D01*
G01*
G37*
G36*
G01*
X112800000Y-99050000D02*
X111550000Y-99050000D01*
G75*
G02*
X111425000Y-98925000I0J125000D01*
G01*
X111425000Y-98675000D01*
G75*
G02*
X111550000Y-98550000I125000J0D01*
G01*
X112800000Y-98550000D01*
G75*
G02*
X112925000Y-98675000I0J-125000D01*
G01*
X112925000Y-98925000D01*
G75*
G02*
X112800000Y-99050000I-125000J0D01*
G01*
G37*
G36*
G01*
X112800000Y-99850000D02*
X111550000Y-99850000D01*
G75*
G02*
X111425000Y-99725000I0J125000D01*
G01*
X111425000Y-99475000D01*
G75*
G02*
X111550000Y-99350000I125000J0D01*
G01*
X112800000Y-99350000D01*
G75*
G02*
X112925000Y-99475000I0J-125000D01*
G01*
X112925000Y-99725000D01*
G75*
G02*
X112800000Y-99850000I-125000J0D01*
G01*
G37*
G36*
G01*
X112800000Y-100650000D02*
X111550000Y-100650000D01*
G75*
G02*
X111425000Y-100525000I0J125000D01*
G01*
X111425000Y-100275000D01*
G75*
G02*
X111550000Y-100150000I125000J0D01*
G01*
X112800000Y-100150000D01*
G75*
G02*
X112925000Y-100275000I0J-125000D01*
G01*
X112925000Y-100525000D01*
G75*
G02*
X112800000Y-100650000I-125000J0D01*
G01*
G37*
G36*
G01*
X112800000Y-101450000D02*
X111550000Y-101450000D01*
G75*
G02*
X111425000Y-101325000I0J125000D01*
G01*
X111425000Y-101075000D01*
G75*
G02*
X111550000Y-100950000I125000J0D01*
G01*
X112800000Y-100950000D01*
G75*
G02*
X112925000Y-101075000I0J-125000D01*
G01*
X112925000Y-101325000D01*
G75*
G02*
X112800000Y-101450000I-125000J0D01*
G01*
G37*
G36*
G01*
X112800000Y-102250000D02*
X111550000Y-102250000D01*
G75*
G02*
X111425000Y-102125000I0J125000D01*
G01*
X111425000Y-101875000D01*
G75*
G02*
X111550000Y-101750000I125000J0D01*
G01*
X112800000Y-101750000D01*
G75*
G02*
X112925000Y-101875000I0J-125000D01*
G01*
X112925000Y-102125000D01*
G75*
G02*
X112800000Y-102250000I-125000J0D01*
G01*
G37*
G36*
G01*
X112800000Y-103050000D02*
X111550000Y-103050000D01*
G75*
G02*
X111425000Y-102925000I0J125000D01*
G01*
X111425000Y-102675000D01*
G75*
G02*
X111550000Y-102550000I125000J0D01*
G01*
X112800000Y-102550000D01*
G75*
G02*
X112925000Y-102675000I0J-125000D01*
G01*
X112925000Y-102925000D01*
G75*
G02*
X112800000Y-103050000I-125000J0D01*
G01*
G37*
G36*
G01*
X110925000Y-104925000D02*
X110675000Y-104925000D01*
G75*
G02*
X110550000Y-104800000I0J125000D01*
G01*
X110550000Y-103550000D01*
G75*
G02*
X110675000Y-103425000I125000J0D01*
G01*
X110925000Y-103425000D01*
G75*
G02*
X111050000Y-103550000I0J-125000D01*
G01*
X111050000Y-104800000D01*
G75*
G02*
X110925000Y-104925000I-125000J0D01*
G01*
G37*
G36*
G01*
X110125000Y-104925000D02*
X109875000Y-104925000D01*
G75*
G02*
X109750000Y-104800000I0J125000D01*
G01*
X109750000Y-103550000D01*
G75*
G02*
X109875000Y-103425000I125000J0D01*
G01*
X110125000Y-103425000D01*
G75*
G02*
X110250000Y-103550000I0J-125000D01*
G01*
X110250000Y-104800000D01*
G75*
G02*
X110125000Y-104925000I-125000J0D01*
G01*
G37*
G36*
G01*
X109325000Y-104925000D02*
X109075000Y-104925000D01*
G75*
G02*
X108950000Y-104800000I0J125000D01*
G01*
X108950000Y-103550000D01*
G75*
G02*
X109075000Y-103425000I125000J0D01*
G01*
X109325000Y-103425000D01*
G75*
G02*
X109450000Y-103550000I0J-125000D01*
G01*
X109450000Y-104800000D01*
G75*
G02*
X109325000Y-104925000I-125000J0D01*
G01*
G37*
G36*
G01*
X108525000Y-104925000D02*
X108275000Y-104925000D01*
G75*
G02*
X108150000Y-104800000I0J125000D01*
G01*
X108150000Y-103550000D01*
G75*
G02*
X108275000Y-103425000I125000J0D01*
G01*
X108525000Y-103425000D01*
G75*
G02*
X108650000Y-103550000I0J-125000D01*
G01*
X108650000Y-104800000D01*
G75*
G02*
X108525000Y-104925000I-125000J0D01*
G01*
G37*
G36*
G01*
X107725000Y-104925000D02*
X107475000Y-104925000D01*
G75*
G02*
X107350000Y-104800000I0J125000D01*
G01*
X107350000Y-103550000D01*
G75*
G02*
X107475000Y-103425000I125000J0D01*
G01*
X107725000Y-103425000D01*
G75*
G02*
X107850000Y-103550000I0J-125000D01*
G01*
X107850000Y-104800000D01*
G75*
G02*
X107725000Y-104925000I-125000J0D01*
G01*
G37*
G36*
G01*
X106925000Y-104925000D02*
X106675000Y-104925000D01*
G75*
G02*
X106550000Y-104800000I0J125000D01*
G01*
X106550000Y-103550000D01*
G75*
G02*
X106675000Y-103425000I125000J0D01*
G01*
X106925000Y-103425000D01*
G75*
G02*
X107050000Y-103550000I0J-125000D01*
G01*
X107050000Y-104800000D01*
G75*
G02*
X106925000Y-104925000I-125000J0D01*
G01*
G37*
G36*
G01*
X106125000Y-104925000D02*
X105875000Y-104925000D01*
G75*
G02*
X105750000Y-104800000I0J125000D01*
G01*
X105750000Y-103550000D01*
G75*
G02*
X105875000Y-103425000I125000J0D01*
G01*
X106125000Y-103425000D01*
G75*
G02*
X106250000Y-103550000I0J-125000D01*
G01*
X106250000Y-104800000D01*
G75*
G02*
X106125000Y-104925000I-125000J0D01*
G01*
G37*
G36*
G01*
X105325000Y-104925000D02*
X105075000Y-104925000D01*
G75*
G02*
X104950000Y-104800000I0J125000D01*
G01*
X104950000Y-103550000D01*
G75*
G02*
X105075000Y-103425000I125000J0D01*
G01*
X105325000Y-103425000D01*
G75*
G02*
X105450000Y-103550000I0J-125000D01*
G01*
X105450000Y-104800000D01*
G75*
G02*
X105325000Y-104925000I-125000J0D01*
G01*
G37*
D23*
X92500000Y-78000000D03*
X90500000Y-78000000D03*
D24*
X95200000Y-72300000D03*
X87800000Y-72300000D03*
D23*
X108500000Y-78000000D03*
X106500000Y-78000000D03*
D24*
X111200000Y-72300000D03*
X103800000Y-72300000D03*
D23*
X106500000Y-122000000D03*
X108500000Y-122000000D03*
D24*
X103800000Y-127700000D03*
X111200000Y-127700000D03*
D23*
X90500000Y-122000000D03*
X92500000Y-122000000D03*
D24*
X87800000Y-127700000D03*
X95200000Y-127700000D03*
D25*
G36*
X127747308Y-82818376D02*
G01*
X130575735Y-79989949D01*
X131424264Y-80838478D01*
X128595837Y-83666905D01*
X127747308Y-82818376D01*
G37*
G36*
X126333095Y-81404163D02*
G01*
X129161522Y-78575736D01*
X130010051Y-79424265D01*
X127181624Y-82252692D01*
X126333095Y-81404163D01*
G37*
G36*
X133687005Y-80272792D02*
G01*
X136091168Y-77868629D01*
X137363961Y-79141422D01*
X134959798Y-81545585D01*
X133687005Y-80272792D01*
G37*
G36*
X128454415Y-75040202D02*
G01*
X130858578Y-72636039D01*
X132131371Y-73908832D01*
X129727208Y-76312995D01*
X128454415Y-75040202D01*
G37*
G36*
X127181624Y-117747308D02*
G01*
X130010051Y-120575735D01*
X129161522Y-121424264D01*
X126333095Y-118595837D01*
X127181624Y-117747308D01*
G37*
G36*
X128595837Y-116333095D02*
G01*
X131424264Y-119161522D01*
X130575735Y-120010051D01*
X127747308Y-117181624D01*
X128595837Y-116333095D01*
G37*
G36*
X129727208Y-123687005D02*
G01*
X132131371Y-126091168D01*
X130858578Y-127363961D01*
X128454415Y-124959798D01*
X129727208Y-123687005D01*
G37*
G36*
X134959798Y-118454415D02*
G01*
X137363961Y-120858578D01*
X136091168Y-122131371D01*
X133687005Y-119727208D01*
X134959798Y-118454415D01*
G37*
G36*
X72252692Y-117181624D02*
G01*
X69424265Y-120010051D01*
X68575736Y-119161522D01*
X71404163Y-116333095D01*
X72252692Y-117181624D01*
G37*
G36*
X73666905Y-118595837D02*
G01*
X70838478Y-121424264D01*
X69989949Y-120575735D01*
X72818376Y-117747308D01*
X73666905Y-118595837D01*
G37*
G36*
X66312995Y-119727208D02*
G01*
X63908832Y-122131371D01*
X62636039Y-120858578D01*
X65040202Y-118454415D01*
X66312995Y-119727208D01*
G37*
G36*
X71545585Y-124959798D02*
G01*
X69141422Y-127363961D01*
X67868629Y-126091168D01*
X70272792Y-123687005D01*
X71545585Y-124959798D01*
G37*
G36*
X72818376Y-82252692D02*
G01*
X69989949Y-79424265D01*
X70838478Y-78575736D01*
X73666905Y-81404163D01*
X72818376Y-82252692D01*
G37*
G36*
X71404163Y-83666905D02*
G01*
X68575736Y-80838478D01*
X69424265Y-79989949D01*
X72252692Y-82818376D01*
X71404163Y-83666905D01*
G37*
G36*
X70272792Y-76312995D02*
G01*
X67868629Y-73908832D01*
X69141422Y-72636039D01*
X71545585Y-75040202D01*
X70272792Y-76312995D01*
G37*
G36*
X65040202Y-81545585D02*
G01*
X62636039Y-79141422D01*
X63908832Y-77868629D01*
X66312995Y-80272792D01*
X65040202Y-81545585D01*
G37*
D26*
X91200000Y-113000000D03*
X87800000Y-113000000D03*
D27*
X87200000Y-110150000D03*
X91800000Y-110150000D03*
X89500000Y-110150000D03*
D28*
X89500000Y-103850000D03*
D18*
X72800000Y-110550000D03*
X72800000Y-111500000D03*
X72800000Y-112450000D03*
X70200000Y-112450000D03*
X70200000Y-111500000D03*
X70200000Y-110550000D03*
G36*
G01*
X104500000Y-106830000D02*
X104500000Y-106230000D01*
G75*
G02*
X104800000Y-105930000I300000J0D01*
G01*
X105600000Y-105930000D01*
G75*
G02*
X105900000Y-106230000I0J-300000D01*
G01*
X105900000Y-106830000D01*
G75*
G02*
X105600000Y-107130000I-300000J0D01*
G01*
X104800000Y-107130000D01*
G75*
G02*
X104500000Y-106830000I0J300000D01*
G01*
G37*
G36*
G01*
X106700000Y-106830000D02*
X106700000Y-106230000D01*
G75*
G02*
X107000000Y-105930000I300000J0D01*
G01*
X107800000Y-105930000D01*
G75*
G02*
X108100000Y-106230000I0J-300000D01*
G01*
X108100000Y-106830000D01*
G75*
G02*
X107800000Y-107130000I-300000J0D01*
G01*
X107000000Y-107130000D01*
G75*
G02*
X106700000Y-106830000I0J300000D01*
G01*
G37*
G36*
G01*
X106700000Y-108530000D02*
X106700000Y-107930000D01*
G75*
G02*
X107000000Y-107630000I300000J0D01*
G01*
X107800000Y-107630000D01*
G75*
G02*
X108100000Y-107930000I0J-300000D01*
G01*
X108100000Y-108530000D01*
G75*
G02*
X107800000Y-108830000I-300000J0D01*
G01*
X107000000Y-108830000D01*
G75*
G02*
X106700000Y-108530000I0J300000D01*
G01*
G37*
G36*
G01*
X104500000Y-108530000D02*
X104500000Y-107930000D01*
G75*
G02*
X104800000Y-107630000I300000J0D01*
G01*
X105600000Y-107630000D01*
G75*
G02*
X105900000Y-107930000I0J-300000D01*
G01*
X105900000Y-108530000D01*
G75*
G02*
X105600000Y-108830000I-300000J0D01*
G01*
X104800000Y-108830000D01*
G75*
G02*
X104500000Y-108530000I0J300000D01*
G01*
G37*
M02*
